<?xml version="1.0" standalone="no"?>
<!DOCTYPE svg PUBLIC "-//W3C//DTD SVG 1.1//EN" "http://www.w3.org/Graphics/SVG/1.1/DTD/svg11.dtd" >
<svg xmlns="http://www.w3.org/2000/svg">
<metadata></metadata>
<defs>
<font id="neutra_textbook_alt" horiz-adv-x="1343" >
<font-face units-per-em="2048" ascent="1638" descent="-410" />
<missing-glyph horiz-adv-x="485" />
<glyph unicode="&#xfb01;" horiz-adv-x="1030" d="M70 727v121h137v385q0 143 65.5 207.5t171.5 64.5q78 0 127.5 -27.5t77.5 -64.5l-90 -86q-23 23 -45 36t-59 13q-47 0 -76 -29.5t-29 -113.5v-385h524v-848h-143v727h-381v-727h-143v727h-137zM700 1194q0 45 31 73.5t72 28.5t71.5 -28.5t30.5 -73.5t-30.5 -72.5 t-71.5 -27.5t-72 27.5t-31 72.5z" />
<glyph unicode="&#xfb02;" horiz-adv-x="1038" d="M70 727v121h137v385q0 143 64.5 207.5t166.5 64.5q76 0 121 -24.5t76 -59.5l-90 -90q-16 20 -38 32.5t-56 12.5q-47 0 -74 -29.5t-27 -113.5v-385h217v-121h-217v-727h-143v727h-137zM731 0v1479h143v-1479h-143z" />
<glyph horiz-adv-x="2048" />
<glyph horiz-adv-x="2048" />
<glyph unicode="&#xd;" horiz-adv-x="485" />
<glyph unicode=" "  horiz-adv-x="485" />
<glyph unicode="&#x09;" horiz-adv-x="485" />
<glyph unicode="&#xa0;" horiz-adv-x="485" />
<glyph unicode="!" horiz-adv-x="499" d="M141 94q0 47 33 79t76 32t75.5 -32t32.5 -79t-32.5 -77.5t-75.5 -30.5t-76 30.5t-33 77.5zM170 1393h160l-25 -1004h-110z" />
<glyph unicode="&#x22;" horiz-adv-x="579" d="M82 1393h151l-16 -430h-119zM346 1393h152l-17 -430h-116z" />
<glyph unicode="#" horiz-adv-x="944" d="M59 719v115h164l56 221h-148v114h176l55 224h119l-55 -224h203l57 224h119l-55 -224h135v-114h-164l-55 -221h145v-115h-176l-53 -221h-121l55 221h-203l-53 -221h-121l58 221h-138zM342 834h205l55 221h-203z" />
<glyph unicode="$" horiz-adv-x="1093" d="M63 264l123 68q25 -43 52.5 -81t62.5 -66.5t81 -47t105 -24.5v569l-14 6q-160 68 -247 157t-87 240q0 70 27 128.5t74 100.5t110.5 66.5t136.5 28.5v174h105v-178q111 -16 183.5 -70.5t123.5 -130.5l-115 -78q-33 53 -77.5 92t-114.5 56v-481l26 -13q90 -37 159 -79 t115 -93t69.5 -113.5t23.5 -142.5q0 -168 -106.5 -262t-286.5 -104v-224h-105v224q-166 14 -268 93t-156 185zM283 1090q0 -92 47 -146.5t157 -103.5v442q-96 -8 -150 -59.5t-54 -132.5zM592 113q117 10 182.5 73.5t65.5 163.5q0 104 -62.5 168t-185.5 119v-524z" />
<glyph unicode="%" horiz-adv-x="1660" d="M63 1067q0 74 29 137.5t76 108.5t110.5 70.5t131.5 25.5t131 -25.5t111 -70.5t77 -108.5t29 -137.5t-29 -137.5t-77 -109.5t-111 -71.5t-131 -25.5t-131.5 25.5t-110.5 71.5t-76 109.5t-29 137.5zM197 1067q0 -100 61.5 -162.5t151.5 -62.5t152.5 62.5t62.5 162.5 t-62.5 161.5t-152.5 61.5t-151.5 -61.5t-61.5 -161.5zM319 0l877 1393h145l-876 -1393h-146zM903 326q0 74 29 137t76 108t110.5 71t130.5 26q68 0 131.5 -26t110.5 -71t75.5 -108.5t28.5 -136.5q0 -74 -28.5 -137.5t-75.5 -108.5t-110.5 -70.5t-131.5 -25.5t-131 25.5 t-110 70.5t-76 108.5t-29 137.5zM1034 326q0 -49 16.5 -90t46 -72t68.5 -47.5t84 -16.5t84 16.5t68 47.5t46 71.5t17 90.5q0 102 -62.5 163.5t-152.5 61.5t-152.5 -61.5t-62.5 -163.5z" />
<glyph unicode="&#x26;" horiz-adv-x="1339" d="M88 362q0 86 27.5 153t76 119t114 95t140.5 84l-24 31q-113 139 -113 278q0 61 21.5 113.5t60.5 90.5t94.5 60.5t122.5 22.5q68 0 122 -21.5t92 -60.5t59.5 -90t21.5 -113q0 -106 -69.5 -187t-186.5 -149l307 -372q59 143 60 338h141q0 -135 -27.5 -249t-76.5 -206 l245 -299h-178l-149 180q-86 -96 -198 -146t-241 -50q-205 0 -323.5 102t-118.5 276zM242 371q0 -121 75.5 -188.5t212.5 -67.5q106 0 195.5 43t155.5 129l-361 436q-61 -35 -112.5 -70t-88 -75.5t-57 -92t-20.5 -114.5zM451 1124q0 -55 21.5 -102t59.5 -94l39 -47 q90 53 143.5 109.5t53.5 133.5q0 74 -44 118t-114 44q-72 0 -115.5 -43t-43.5 -119z" />
<glyph unicode="'" horiz-adv-x="315" d="M82 1393h151l-16 -430h-119z" />
<glyph unicode="(" horiz-adv-x="589" d="M90 596q0 156 31 287t80 239.5t112.5 194.5t128.5 153l90 -73q-59 -70 -112 -152t-93 -180t-63.5 -215t-23.5 -254q0 -139 23.5 -255t63.5 -214t93 -180t112 -152l-90 -74q-66 68 -129 154t-112 193.5t-80 238.5t-31 289z" />
<glyph unicode=")" horiz-adv-x="589" d="M57 -205q59 70 112.5 152t93.5 180t62.5 214t22.5 255q0 137 -22.5 254t-62.5 215t-93 180t-113 152l88 73q66 -68 129.5 -153.5t113.5 -193t81 -239.5t31 -288t-31 -287t-81 -239.5t-113.5 -194.5t-129.5 -154z" />
<glyph unicode="*" horiz-adv-x="806" d="M104 985l240 96l-240 97l64 110l201 -147l-31 252h129l-31 -252l203 147l63 -110l-241 -97l239 -96l-61 -111l-203 150l31 -256h-129l31 256l-201 -150z" />
<glyph unicode="+" horiz-adv-x="845" d="M80 596v127h276v297h131v-297h279v-127h-279v-297h-131v297h-276z" />
<glyph unicode="," horiz-adv-x="413" d="M90 -229l80 227q-33 10 -53.5 36.5t-20.5 63.5q0 47 34 79t77 32q45 0 77.5 -32t32.5 -79q0 -23 -7 -44t-17 -38l-123 -245h-80z" />
<glyph unicode="-" horiz-adv-x="585" d="M94 410v129h395v-129h-395z" />
<glyph unicode="." horiz-adv-x="413" d="M96 98q0 47 34 79t77 32q45 0 77.5 -32t32.5 -79t-32.5 -79.5t-77.5 -32.5q-43 0 -77 32.5t-34 79.5z" />
<glyph unicode="/" horiz-adv-x="876" d="M31 -262l614 1741h143l-614 -1741h-143z" />
<glyph unicode="0" horiz-adv-x="1503" d="M96 696q0 158 50.5 289t139.5 225.5t207.5 146.5t258.5 52q137 0 256.5 -52t209 -146.5t139.5 -225.5t50 -289t-50 -289t-139.5 -225t-209 -146t-256.5 -52q-139 0 -258 52t-208 146t-139.5 225.5t-50.5 288.5zM252 696q0 -127 35 -232.5t100.5 -183t157.5 -120.5 t207 -43t207 43t157.5 120.5t100 183t34.5 232.5q0 125 -34.5 231.5t-100 184.5t-158 121t-206.5 43q-115 0 -207 -43t-157.5 -121t-100.5 -184.5t-35 -231.5z" />
<glyph unicode="1" horiz-adv-x="653" d="M74 1262v131h377v-1393h-150v1262h-227z" />
<glyph unicode="2" horiz-adv-x="1091" d="M57 0v14l572 607q96 100 149 193t53 200q0 115 -67.5 187.5t-192.5 72.5q-117 0 -199.5 -70.5t-113.5 -208.5l-141 31q18 82 55 151.5t94.5 121t133 81t171.5 29.5q94 0 170 -28.5t129.5 -81t82 -125t28.5 -160.5q0 -131 -67.5 -245t-170.5 -224l-309 -328 q-16 -18 -33.5 -34.5t-33.5 -30.5q-18 -16 -37 -29q20 2 43 4q18 2 39.5 3t44.5 1h532v-131h-932z" />
<glyph unicode="3" horiz-adv-x="1122" d="M41 264l123 66q51 -92 140 -152.5t224 -60.5q84 0 152 26.5t114 72.5t70.5 109.5t24.5 137.5t-24.5 136.5t-73 107.5t-117 70.5t-154.5 25.5q-61 0 -101 -9.5t-69 -19.5l-10 14l340 406q10 12 24.5 26.5l24.5 24.5l27 27q-16 -4 -37 -6q-16 -2 -36.5 -3t-41.5 -1h-483 v131h837v-15l-319 -381q-16 -18 -31.5 -33.5t-26.5 -25.5q-14 -12 -24 -23q98 -4 180 -39.5t140.5 -96t91 -142.5t32.5 -178q0 -106 -36.5 -194.5t-104.5 -151t-159.5 -96t-202.5 -33.5q-86 0 -163 21.5t-140.5 59t-111.5 89t-79 110.5z" />
<glyph unicode="4" horiz-adv-x="1208" d="M57 258v76l904 1091h12v-1042h155v-125h-155v-258h-150v258h-766zM242 373q27 2 53 4q23 2 49.5 4t48.5 2h430v573q0 23 1 48.5t3 48.5q2 25 7 49l-29 -43q-12 -18 -28.5 -41t-33.5 -43l-395 -502q-37 -39 -69 -70q-19 -16 -37 -30z" />
<glyph unicode="5" horiz-adv-x="1124" d="M47 248l127 69q49 -86 138 -143t223 -57q80 0 144 26.5t109.5 73.5t70 111.5t24.5 140.5t-24.5 139.5t-71 110.5t-113 73.5t-148.5 26.5q-113 0 -191.5 -35.5t-141.5 -93.5l-13 8v695h756v-131h-625v-373q96 57 236 57q109 0 200 -36t155.5 -99t100 -150.5t35.5 -191.5 q0 -111 -36.5 -201t-104.5 -153.5t-159.5 -97t-202.5 -33.5q-166 0 -294 71.5t-194 192.5z" />
<glyph unicode="6" horiz-adv-x="1163" d="M94 451q0 92 31 171.5t86 159.5l428 611h166l-297 -422q-14 -20 -32.5 -42t-35.5 -40q-20 -23 -39 -43q45 33 100.5 52.5t110.5 19.5q98 0 182.5 -36t144.5 -97.5t95 -146.5t35 -183t-36 -183.5t-100.5 -150t-153 -101t-197.5 -36.5t-198 36.5t-153.5 100t-100.5 148.5 t-36 182zM246 455q0 -68 23.5 -129.5t66.5 -107.5t105.5 -73.5t140.5 -27.5t140 27.5t105 73.5t67 107.5t24 129.5t-23 130t-66 109t-105 75t-142 28q-78 0 -140.5 -28t-105.5 -74t-66.5 -108.5t-23.5 -131.5z" />
<glyph unicode="7" horiz-adv-x="1124" d="M70 1262v131h999v-15l-690 -1378h-158l631 1262h-782z" />
<glyph unicode="8" horiz-adv-x="1165" d="M80 416q0 145 87 241.5t228 133.5q-90 35 -144 107.5t-54 178.5q0 72 29.5 132.5t81.5 105.5t123 69.5t153 24.5t153.5 -24.5t123.5 -69.5t82 -105.5t30 -132.5q0 -106 -55.5 -179t-145.5 -107q141 -39 227 -134.5t86 -240.5q0 -94 -36.5 -174t-102 -137.5t-158.5 -89 t-204 -31.5t-204 31.5t-159.5 89t-103.5 137.5t-37 174zM231 420q0 -135 96.5 -219t256.5 -84q80 0 144.5 22.5t110.5 62.5t70.5 96t24.5 122t-24.5 121t-70.5 95t-110.5 62.5t-144.5 22.5t-144.5 -22.5t-110.5 -62.5t-72 -95.5t-26 -120.5zM342 1067q0 -96 65.5 -156.5 t176.5 -60.5t176 60.5t65 156.5q0 92 -65.5 152.5t-175.5 60.5q-111 0 -176.5 -60.5t-65.5 -152.5z" />
<glyph unicode="9" horiz-adv-x="1163" d="M88 934q0 98 36 184t100.5 150.5t155.5 102.5t200 38t199.5 -37t156 -101.5t102.5 -150.5t37 -184q0 -92 -32.5 -172t-88.5 -162l-405 -602h-164l289 426q27 39 55 72q14 18 31 37q-98 -70 -211 -70q-100 0 -184 36t-145.5 98.5t-96.5 148.5t-35 186zM240 934 q0 -70 22.5 -133.5t65.5 -110.5t106.5 -75.5t145.5 -28.5q80 0 143 27.5t107 74.5t69 110.5t25 135.5q0 68 -23.5 130t-68 109.5t-109 75t-143.5 27.5q-80 0 -143.5 -27.5t-106.5 -75t-66.5 -110t-23.5 -129.5z" />
<glyph unicode=":" horiz-adv-x="434" d="M106 98q0 47 34 79t77 32q45 0 78 -32t33 -79t-33 -79.5t-78 -32.5q-43 0 -77 32.5t-34 79.5zM106 557q0 47 34 79t77 32q45 0 78 -32t33 -79t-33 -80t-78 -33q-43 0 -77 33t-34 80z" />
<glyph unicode=";" horiz-adv-x="434" d="M100 -229l80 227q-33 10 -53.5 36.5t-20.5 63.5q0 47 34 79t77 32q45 0 78 -32t33 -79q0 -23 -7.5 -44t-17.5 -38l-123 -245h-80zM106 557q0 47 34 79t77 32q45 0 78 -32t33 -79t-33 -80t-78 -33q-43 0 -77 33t-34 80z" />
<glyph unicode="&#x3c;" horiz-adv-x="800" d="M74 647v21l626 336v-134l-411 -215l411 -217v-133z" />
<glyph unicode="=" horiz-adv-x="841" d="M86 422v125h670v-125h-670zM86 721v127h670v-127h-670z" />
<glyph unicode="&#x3e;" horiz-adv-x="800" d="M100 305v133l414 215l-414 217v134l627 -342v-21z" />
<glyph unicode="?" horiz-adv-x="960" d="M55 1161q51 123 154.5 185.5t245.5 62.5q90 0 164.5 -28.5t128 -80t82 -123t28.5 -159.5q0 -82 -26.5 -150.5t-74.5 -119t-116 -81t-149 -36.5v-248h-136v360h68q68 0 121 21.5t90 58.5t56.5 87.5t19.5 107.5q0 123 -71 192.5t-185 69.5q-104 0 -169 -44t-112 -136z M313 94q0 47 33 79t76 32t75.5 -32t32.5 -79t-32.5 -77.5t-75.5 -30.5t-76 30.5t-33 77.5z" />
<glyph unicode="@" horiz-adv-x="1814" d="M100 387q0 176 65.5 325.5t176.5 258t259.5 169t313.5 60.5q174 0 320.5 -57.5t253 -158.5t166 -239.5t59.5 -300.5q0 -119 -23.5 -204.5t-66.5 -142t-101.5 -83t-125.5 -26.5q-98 0 -159.5 47t-78.5 145q-45 -100 -119.5 -148t-175.5 -48q-76 0 -141.5 28.5t-113.5 80.5 t-75.5 124t-27.5 158t27.5 158.5t75.5 126t112.5 83t140.5 29.5q100 0 168 -49t105 -127l-5 156h142v-473q0 -88 28.5 -134.5t100.5 -46.5q80 0 133 81t53 263q0 139 -47 257t-134 204t-211 134t-280 48q-152 0 -276.5 -54t-213.5 -147t-139 -221t-50 -276q0 -150 48 -276.5 t137 -220t215 -146.5t282 -53q184 0 335 82l54 -103q-86 -47 -182 -69.5t-207 -22.5q-172 0 -320.5 57.5t-259.5 164t-174.5 256t-63.5 331.5zM651 375q0 -57 17.5 -107.5t49.5 -87.5t77 -57.5t98 -20.5q51 0 95 21.5t77 58.5t51.5 86t18.5 107q0 57 -18.5 107t-51.5 88 t-77 59.5t-95 21.5q-53 0 -98 -21.5t-77 -59.5t-49.5 -88t-17.5 -107z" />
<glyph unicode="A" d="M76 0l577 1407h25l590 -1407h-156l-94 233h-705l-92 -233h-145zM365 360h600l-246 619q-10 25 -19.5 53.5l-17.5 52.5q-8 29 -16 60q-10 -31 -19 -60q-8 -25 -17 -53t-20 -53z" />
<glyph unicode="B" horiz-adv-x="1247" d="M190 0v1393h474q98 0 169.5 -27t118.5 -74t71 -109.5t24 -131.5q0 -104 -45.5 -176t-135.5 -101q135 -33 211 -129t76 -235q0 -86 -26.5 -161t-82 -130.5t-138.5 -87t-193 -31.5h-523zM338 131h364q80 0 137.5 21.5t93.5 59.5t53.5 89t17.5 113q0 123 -75 202.5 t-235 79.5h-356v-565zM338 823h336q121 0 173 61.5t52 157.5q0 47 -13.5 87t-43 70t-75.5 46.5t-114 16.5h-315v-439z" />
<glyph unicode="C" horiz-adv-x="1486" d="M111 696q0 158 56 289t152.5 225.5t227.5 146.5t278 52q373 0 553 -270l-112 -82q-68 100 -178.5 159.5t-262.5 59.5q-123 0 -225 -44t-177 -122t-117 -183.5t-42 -230.5t42 -230.5t117 -183t177 -121.5t225 -44q154 0 268.5 61.5t190.5 171.5l115 -80 q-92 -135 -239 -210.5t-335 -75.5q-147 0 -278 52t-227.5 146t-152.5 225.5t-56 288.5z" />
<glyph unicode="D" horiz-adv-x="1392" d="M190 0v1393h338q174 0 313.5 -49.5t238 -140.5t150.5 -220t52 -287t-52 -286.5t-149.5 -220t-238 -140.5t-314.5 -49h-338zM338 133h180q154 0 268.5 41t190.5 116t112.5 178t36.5 228t-36.5 228.5t-112.5 178.5t-190.5 116t-268.5 41h-180v-1127z" />
<glyph unicode="E" horiz-adv-x="1187" d="M190 0v1393h848v-131h-700v-654h625v-129h-625v-348h729v-131h-877z" />
<glyph unicode="F" horiz-adv-x="1138" d="M190 0v1393h838v-131h-690v-654h627v-135h-627v-473h-148z" />
<glyph unicode="G" horiz-adv-x="1560" d="M92 696q0 156 56.5 287t153.5 226.5t227 147.5t280 52q180 0 326.5 -67.5t238.5 -213.5l-117 -84q-147 231 -448 232q-123 0 -225.5 -44t-178 -122t-117.5 -183.5t-42 -230.5t43 -230.5t117.5 -183t178 -121.5t226.5 -44q119 0 211 32.5t157.5 89t104.5 130t51 155.5 h-497v131h657q-2 -152 -50 -275.5t-136 -211.5t-214 -136t-284 -48q-152 0 -283 52t-227 147.5t-152.5 225.5t-56.5 287z" />
<glyph unicode="H" horiz-adv-x="1421" d="M190 0v1393h148v-785h745v785h148v-1393h-148v473h-745v-473h-148z" />
<glyph unicode="I" horiz-adv-x="542" d="M197 0v1393h149v-1393h-149z" />
<glyph unicode="J" horiz-adv-x="989" d="M68 193l120 75q41 -70 96.5 -110.5t137.5 -40.5q104 0 166.5 59.5t62.5 194.5v1022h150v-1026q0 -96 -28 -168t-78 -120t-118.5 -71.5t-148.5 -23.5q-139 0 -226 60t-134 149z" />
<glyph unicode="K" horiz-adv-x="1243" d="M190 0v1393h148v-660q0 -49 -4 -102t-8 -88q23 45 51.5 95t48.5 77l526 678h166l-516 -672l572 -721h-183l-485 612l-168 -202v-410h-148z" />
<glyph unicode="L" horiz-adv-x="1079" d="M190 0v1393h148v-1262h657v-131h-805z" />
<glyph unicode="M" horiz-adv-x="1705" d="M133 0l154 1409h20l477 -805q27 -47 47 -94q10 -25 23 -49q12 25 23 49q10 23 21 47.5t26 46.5l477 805h18l154 -1409h-150l-96 850q-4 33 -6 69.5t-4 67.5q-2 37 -2 72q-12 -35 -27 -70q-12 -29 -28.5 -64.5t-32.5 -64.5l-369 -627h-16l-367 627q-16 29 -32.5 63.5 t-28.5 65.5l-29 72q0 -37 -2 -74q-2 -33 -4 -68.5t-6 -68.5l-97 -850h-143z" />
<glyph unicode="N" horiz-adv-x="1460" d="M190 0v1407h25l832 -983q14 -18 31.5 -40t31.5 -42q16 -23 33 -47q-4 29 -6 57q-2 25 -3 51.5t-1 49.5v940h137v-1407h-25l-831 983q-16 16 -32.5 38.5t-31.5 43.5q-16 23 -33 47q2 -29 7 -58q2 -25 4 -51t2 -49v-940h-140z" />
<glyph unicode="O" horiz-adv-x="1652" d="M111 696q0 158 56 289t152.5 225.5t227.5 146.5t278 52q150 0 280 -52t227.5 -146.5t153.5 -225.5t56 -289t-56 -289t-153.5 -225t-227.5 -146t-280 -52q-147 0 -278 52t-227.5 146t-152.5 225.5t-56 288.5zM264 696q0 -125 42 -230.5t117 -183t178 -121.5t224 -44 q123 0 225.5 44t178.5 121.5t118 183t42 230.5t-42 230.5t-118 183.5t-178.5 122t-225.5 44q-121 0 -224 -44t-178 -122t-117 -183.5t-42 -230.5z" />
<glyph unicode="P" horiz-adv-x="1196" d="M190 0v1393h316q143 0 250.5 -38t179.5 -106.5t108.5 -166t36.5 -214.5q0 -115 -36.5 -211t-108.5 -165.5t-179.5 -107.5t-250.5 -38h-168v-346h-148zM338 475h160q117 0 198.5 28.5t133 81t75 125t23.5 158.5t-23.5 158t-75 124t-133.5 82t-198 30h-160v-787z" />
<glyph unicode="Q" horiz-adv-x="1652" d="M111 696q0 158 56 289t152.5 225.5t227.5 146.5t278 52q150 0 280 -52t227.5 -146.5t153.5 -225.5t56 -289q0 -147 -50 -272t-137 -218t-205 -149.5t-253 -68.5v-318h-141v316q-135 12 -253 69.5t-205 150.5t-137 218t-50 272zM264 696q0 -119 37 -219t101.5 -177 t154.5 -125t199 -60v295h141v-295q109 12 199 60t155.5 125t101.5 177.5t36 218.5q0 125 -42 230.5t-118 183.5t-178.5 122t-225.5 44q-121 0 -224 -44t-178 -122t-117 -183.5t-42 -230.5z" />
<glyph unicode="R" horiz-adv-x="1220" d="M190 0v1393h314q143 0 250.5 -38t180.5 -106.5t109.5 -163t36.5 -206.5q0 -158 -72.5 -275t-217.5 -176l303 -428h-174l-269 381q-72 -12 -147 -12h-166v-369h-148zM338 498h158q119 0 200.5 28.5t133 79.5t75 121t23.5 152t-23.5 152.5t-75 121.5t-134.5 80t-199 29 h-158v-764z" />
<glyph unicode="S" horiz-adv-x="1087" d="M59 266l123 66q25 -43 56.5 -83t73.5 -69.5t98.5 -47t130.5 -17.5q61 0 113.5 16t91 47t61 75t22.5 99q0 53 -16 94t-49 75t-82 63.5t-115 58.5l-110 51q-74 33 -131.5 70t-96.5 82t-59 100t-20 129q0 76 27.5 137.5t76.5 105.5t116.5 67.5t145.5 23.5q141 0 231.5 -58.5 t145.5 -150.5l-119 -74q-41 66 -100.5 109t-157.5 43q-104 0 -162.5 -54.5t-58.5 -144.5q0 -92 52 -144t169 -106l111 -51q86 -39 151.5 -81t109.5 -92t66.5 -112.5t22.5 -140.5q0 -86 -33 -154.5t-90 -115.5t-136 -72.5t-173 -25.5q-100 0 -178 23.5t-137.5 62.5t-101.5 90 t-69 106z" />
<glyph unicode="T" horiz-adv-x="1138" d="M68 1262v131h1003v-131h-428v-1262h-147v1262h-428z" />
<glyph unicode="U" horiz-adv-x="1355" d="M178 475v918h148v-908q0 -186 94 -278t258 -92q162 0 257 92t95 278v908h148v-918q0 -123 -38 -215t-105.5 -153.5t-159 -92t-197.5 -30.5t-197.5 30.5t-159 92t-105.5 153.5t-38 215z" />
<glyph unicode="V" d="M76 1393h160l382 -944q10 -27 20.5 -60t20.5 -61q8 -35 19 -68q8 33 18 68q8 29 19.5 61.5t21.5 59.5l381 944h150l-580 -1407h-24z" />
<glyph unicode="W" horiz-adv-x="1951" d="M72 1393h157l293 -928q6 -23 13.5 -49.5t13.5 -48.5q8 -27 12 -54q6 27 14 54q6 23 13.5 49t17.5 49l363 942h24l363 -942q8 -23 16 -49.5t14 -48.5q8 -27 15 -54q4 27 12 54q6 23 12.5 49t14.5 49l291 928h149l-459 -1407h-24l-375 991q-10 23 -16.5 46.5t-12.5 43.5 q-8 23 -12 47q-4 -25 -12 -47q-6 -20 -14.5 -44t-16.5 -46l-381 -991h-25z" />
<glyph unicode="X" horiz-adv-x="1300" d="M88 0l477 758l-401 635h168l276 -435q16 -31 31 -61q8 -18 14 -35q4 16 13 35q6 16 13 31.5t17 29.5l275 435h162l-400 -635l481 -758h-167l-355 557q-10 14 -18 30.5t-15 33.5q-8 18 -14 34q-4 -16 -12 -34q-6 -16 -14.5 -33t-16.5 -31l-352 -557h-162z" />
<glyph unicode="Y" d="M76 1393h166l379 -693q10 -20 21 -43.5t20 -46.5q8 -25 18 -51q8 25 18 49q8 23 19.5 46.5t21.5 45.5l377 693h154l-516 -951v-442h-152v436z" />
<glyph unicode="Z" horiz-adv-x="1189" d="M80 0v23l778 1239h-668v131h897v-23l-776 -1239h781v-131h-1012z" />
<glyph unicode="[" horiz-adv-x="624" d="M156 -262v1741h395v-123h-252v-1495h252v-123h-395z" />
<glyph unicode="\" horiz-adv-x="878" d="M88 1479h143l617 -1741h-143z" />
<glyph unicode="]" horiz-adv-x="624" d="M74 -139h252v1495h-252v123h397v-1741h-397v123z" />
<glyph unicode="^" horiz-adv-x="854" d="M139 948l279 461h18l279 -461h-119l-168 258l-170 -258h-119z" />
<glyph unicode="_" horiz-adv-x="524" d="M-4 -135h532v-127h-532v127z" />
<glyph unicode="`" horiz-adv-x="1024" d="M268 1415h164l139 -395h-112z" />
<glyph unicode="a" horiz-adv-x="1122" d="M98 426q0 94 31 175t86 139.5t130 92t161 33.5q119 0 198.5 -55t124.5 -145l-4 182h144v-848h-144l4 182q-43 -86 -125.5 -142t-199.5 -56q-86 0 -160 33.5t-128 92t-86 139.5t-32 177zM248 426q0 -139 76 -228t211 -89q68 0 122 23.5t91.5 65.5t59 100t21.5 126 t-21.5 125t-59 100t-92 66.5t-121.5 23.5q-135 0 -211 -88t-76 -225z" />
<glyph unicode="b" horiz-adv-x="1128" d="M154 0v1479h141v-805q47 86 127 139t199 53q86 0 160.5 -33.5t130 -92t87 -139.5t31.5 -175q0 -96 -31.5 -177t-87 -139.5t-131.5 -92t-162 -33.5q-115 0 -199.5 55t-127.5 143l4 -182h-141zM289 426q0 -70 21.5 -128t61.5 -100t95 -65.5t123 -23.5q135 0 214 89t79 228 q0 68 -20.5 126t-59.5 99t-92.5 64.5t-120.5 23.5q-68 0 -123 -23.5t-95 -64.5t-61.5 -99t-21.5 -126z" />
<glyph unicode="c" horiz-adv-x="956" d="M98 424q0 92 34 173t93.5 141.5t139 94t174.5 33.5q115 0 194.5 -40t138.5 -111l-102 -84q-39 51 -95.5 79.5t-135.5 28.5q-68 0 -122.5 -23.5t-92 -66.5t-58 -100t-20.5 -125t20.5 -125t58 -100t92 -66.5t122.5 -23.5q88 0 145 31.5t98 78.5l99 -84q-59 -72 -141 -111.5 t-201 -39.5q-94 0 -174 33.5t-139.5 93t-93.5 140.5t-34 173z" />
<glyph unicode="d" horiz-adv-x="1128" d="M98 426q0 94 32 175t87 139.5t130 92t161 33.5q123 0 200.5 -53t125.5 -139v805h141v-1479h-141l4 182q-43 -88 -128 -143t-200 -55q-86 0 -162 33.5t-131 92t-87 139.5t-32 177zM246 426q0 -139 79 -228t214 -89q68 0 123 23.5t95 65.5t61.5 100t21.5 128 q0 68 -21.5 126t-61.5 99t-95.5 64.5t-122.5 23.5q-68 0 -121 -23.5t-92 -64.5t-59.5 -99t-20.5 -126z" />
<glyph unicode="e" horiz-adv-x="1056" d="M98 424q0 92 34 173t92.5 141.5t139 94t173.5 33.5q102 0 183 -36.5t136 -102t83 -155.5q25 -79 25 -169q0 -13 -1 -26h-721q14 -123 94 -198t221 -75q96 0 161.5 33t106.5 80l88 -86q-59 -66 -145 -106.5t-211 -40.5q-104 0 -189 33.5t-144.5 93t-92.5 140.5t-33 173z M244 485h575q-4 55 -23.5 102.5t-55 82.5t-86 55t-117.5 20q-123 0 -200 -71.5t-93 -188.5z" />
<glyph unicode="f" horiz-adv-x="651" d="M70 727v121h137v385q0 143 65.5 207.5t169.5 64.5q78 0 130.5 -28.5t84.5 -75.5l-94 -84q-20 27 -42.5 43t-65.5 16q-47 0 -76 -30.5t-29 -112.5v-385h228v-121h-228v-727h-143v727h-137z" />
<glyph unicode="g" horiz-adv-x="1130" d="M98 426q0 94 32 175t87 139.5t130 92t161 33.5q123 0 204 -56t126 -144l-4 182h143v-875q0 -113 -32 -193.5t-88 -133t-135 -78t-173 -25.5q-158 0 -264.5 65.5t-165.5 170.5l106 74q53 -90 130 -138.5t190 -48.5q137 0 213 75t76 243v192q-41 -84 -125 -138t-199 -54 q-86 0 -162 33.5t-131 92t-87 139.5t-32 177zM246 426q0 -139 79 -228t214 -89q68 0 123 23.5t95 65.5t61.5 100t21.5 128q0 68 -21.5 126t-61.5 99t-95.5 64.5t-122.5 23.5q-68 0 -121 -23.5t-92 -64.5t-59.5 -99t-20.5 -126z" />
<glyph unicode="h" horiz-adv-x="1056" d="M152 0v1479h143v-797q41 86 119 135t182 49q141 0 229 -92t88 -258v-516h-143v500q0 113 -52 174t-159 61q-119 0 -191.5 -70.5t-72.5 -197.5v-467h-143z" />
<glyph unicode="i" horiz-adv-x="454" d="M125 1194q0 45 30.5 73.5t71.5 28.5t72 -28.5t31 -73.5t-31 -72.5t-72 -27.5t-71.5 27.5t-30.5 72.5zM156 0v848h143v-848h-143z" />
<glyph unicode="j" horiz-adv-x="454" d="M-117 -371l80 86q20 -18 42 -32.5t56 -14.5q43 0 69 29t26 100v1051h143v-1049q0 -127 -62.5 -190.5t-164.5 -63.5q-68 0 -114 26t-75 58zM125 1194q0 45 30.5 73.5t71.5 28.5t72 -28.5t31 -73.5t-31 -72.5t-72 -27.5t-71.5 27.5t-30.5 72.5z" />
<glyph unicode="k" horiz-adv-x="948" d="M152 0v1479h143v-949q0 -63 -10 -120l403 438h166l-326 -356l377 -492h-170l-307 397l-133 -139v-258h-143z" />
<glyph unicode="l" horiz-adv-x="466" d="M162 0v1479h143v-1479h-143z" />
<glyph unicode="m" horiz-adv-x="1550" d="M152 0v848h143l-4 -160q41 86 108.5 132t157.5 46q100 0 163.5 -49t92.5 -129q47 86 124 132t169 46q141 0 221 -86t80 -237v-543h-141v524q0 102 -43 156.5t-144 54.5q-102 0 -164.5 -66.5t-62.5 -193.5v-475h-143v524q0 102 -43 156.5t-142 54.5q-102 0 -165.5 -66.5 t-63.5 -193.5v-475h-143z" />
<glyph unicode="n" horiz-adv-x="1056" d="M152 0v848h143l-4 -174q41 92 121 142t184 50q141 0 229 -92t88 -258v-516h-143v500q0 113 -52 174t-159 61q-119 0 -191.5 -70.5t-72.5 -197.5v-467h-143z" />
<glyph unicode="o" horiz-adv-x="1093" d="M98 424q0 92 35 173t95.5 141.5t142.5 94t178 33.5q94 0 176 -33.5t141.5 -94t94 -141.5t34.5 -173t-34.5 -173t-94 -140.5t-141.5 -93t-176 -33.5q-96 0 -178 33.5t-142.5 93t-95.5 140.5t-35 173zM244 424q0 -68 22.5 -126t62.5 -101t96 -67t124 -24t123 24t95 67 t61.5 101t21.5 126t-21.5 126t-61.5 101t-95.5 66.5t-122.5 23.5q-68 0 -124 -23.5t-96 -66.5t-62.5 -101t-22.5 -126z" />
<glyph unicode="p" horiz-adv-x="1128" d="M154 -434v1282h141l-4 -182q45 88 127 144t203 56q86 0 160.5 -33.5t130 -92t87 -139.5t31.5 -175q0 -96 -31.5 -177t-87 -139.5t-131 -92t-162.5 -33.5q-115 0 -198.5 54t-124.5 138v-610h-141zM289 426q0 -70 21.5 -128t61.5 -100t95 -65.5t123 -23.5q135 0 214 89 t79 228q0 68 -20.5 126t-59.5 99t-92.5 64.5t-120.5 23.5q-68 0 -123 -23.5t-95 -64.5t-61.5 -99t-21.5 -126z" />
<glyph unicode="q" horiz-adv-x="1130" d="M98 426q0 94 32 175t87 139.5t130 92t161 33.5q123 0 204 -56t126 -144l-4 182h143v-1282h-143v610q-41 -84 -125 -138t-199 -54q-86 0 -162 33.5t-131 92t-87 139.5t-32 177zM246 426q0 -139 79 -228t214 -89q68 0 123 23.5t95 65.5t61.5 100t21.5 128q0 68 -21.5 126 t-61.5 99t-95.5 64.5t-122.5 23.5q-68 0 -121 -23.5t-92 -64.5t-59.5 -99t-20.5 -126z" />
<glyph unicode="r" horiz-adv-x="731" d="M152 0v848h143l-4 -166q41 98 106.5 140t141.5 42q47 0 82.5 -10t64.5 -31l-55 -125q-20 14 -48 23.5t-69 9.5q-90 0 -154.5 -67.5t-64.5 -217.5v-446h-143z" />
<glyph unicode="s" horiz-adv-x="839" d="M74 180l110 64q37 -61 95.5 -102.5t150.5 -41.5q86 0 133 34t47 93q0 35 -14 57.5t-42 39t-69 30t-96 29.5q-49 14 -96 32.5t-82 47.5t-56.5 70.5t-21.5 101.5q0 111 81 171t198 60q98 0 167.5 -36.5t114.5 -100.5l-98 -76q-33 45 -78 71t-106 26q-70 0 -109 -30t-39 -79 q0 -31 10.5 -51.5t34 -35.5t62.5 -28.5t94 -29.5q53 -14 104.5 -34t90 -49.5t62 -72.5t23.5 -104q0 -109 -74.5 -180.5t-234.5 -71.5q-141 0 -231 58t-131 138z" />
<glyph unicode="t" horiz-adv-x="688" d="M70 727v121h131v442h141v-442h238v-121h-238v-473q0 -86 26.5 -117t73.5 -31q43 0 69 15.5t46 34.5l78 -90q-29 -29 -79 -56.5t-128 -27.5q-49 0 -90 14t-71.5 47t-48 85t-17.5 128v471h-131z" />
<glyph unicode="u" horiz-adv-x="1036" d="M143 375v473h144v-467q0 -133 54 -202.5t177 -69.5t178.5 69.5t55.5 202.5v467h141v-473q0 -186 -101.5 -289.5t-275.5 -103.5q-176 0 -274.5 103t-98.5 290z" />
<glyph unicode="v" horiz-adv-x="946" d="M51 848h158l225 -490q10 -23 18.5 -47t14.5 -47q8 -25 14 -51q4 27 13 51q6 23 14 47.5t18 46.5l222 490h147l-406 -864h-26z" />
<glyph unicode="w" horiz-adv-x="1398" d="M51 848h156l182 -467q8 -23 16.5 -44.5t12.5 -41.5q6 -23 10 -45q4 23 12 45q6 20 13.5 41.5t17.5 44.5l221 479h19l225 -477q20 -47 33 -88q8 -23 12 -45q4 23 10 45q10 45 29 88l182 465h146l-353 -866h-20l-234 510q-20 41 -30 81q-8 23 -11 43q-4 -23 -12 -45 q-6 -18 -13 -39.5t-16 -39.5l-239 -510h-21z" />
<glyph unicode="x" horiz-adv-x="962" d="M63 0l336 451l-290 397h170l159 -221q10 -12 17.5 -27.5t15.5 -30.5q8 -16 16 -30q2 14 11 30q10 29 30 58l162 221h158l-287 -387l338 -461h-172l-201 279q-10 12 -18 27.5t-16 31.5t-19 35q-8 -18 -16 -35q-8 -16 -15.5 -31.5t-17.5 -27.5l-203 -279h-158z" />
<glyph unicode="y" horiz-adv-x="946" d="M51 848h158l240 -526q8 -20 16 -45t12 -48q6 -25 10 -51q4 27 11 51q4 23 11 47.5t17 45.5l222 526h147l-553 -1282h-147l217 506z" />
<glyph unicode="z" horiz-adv-x="854" d="M66 0v20l489 709h-436v119h667v-23l-493 -706h483v-119h-710z" />
<glyph unicode="{" horiz-adv-x="751" d="M51 483v125h119q57 0 88 30t31 112v434q0 90 22.5 147.5t61.5 90t87 45t101 12.5h117v-123h-109q-66 0 -100.5 -36t-34.5 -138v-447q0 -96 -38 -136t-95 -52q57 -12 95 -53t38 -138v-321q0 -102 35 -138t100 -36h109v-123h-117q-53 0 -101 12t-87 45t-61.5 90.5 t-22.5 147.5v309q0 82 -31 111.5t-88 29.5h-119z" />
<glyph unicode="|" horiz-adv-x="485" d="M174 -262v1741h137v-1741h-137z" />
<glyph unicode="}" horiz-adv-x="749" d="M74 -139h108q66 0 100.5 35.5t34.5 138.5v321q0 96 38 137.5t96 51.5q-57 12 -95.5 53t-38.5 137v447q0 102 -34.5 138t-100.5 36h-108v123h116q51 0 100.5 -12.5t87.5 -45t60.5 -90t22.5 -147.5v-432q0 -82 31.5 -113t89.5 -31h116v-125h-116q-57 0 -89 -29.5 t-32 -109.5v-311q0 -90 -22.5 -147.5t-60.5 -90.5t-87 -45t-101 -12h-116v123z" />
<glyph unicode="~" horiz-adv-x="804" d="M104 469q4 111 52.5 169t124.5 58q45 0 75.5 -18.5t65.5 -48.5q39 -33 56.5 -45.5t41.5 -12.5q35 0 51.5 29t22.5 92l106 -10q-4 -111 -50 -168t-124 -57q-45 0 -75.5 18.5t-65.5 48.5q-39 33 -56.5 44.5t-43.5 11.5q-61 0 -74 -121z" />
<glyph unicode="&#xa1;" horiz-adv-x="499" d="M141 1298q0 47 33 78t76 31t75.5 -30.5t32.5 -78.5q0 -47 -32.5 -78.5t-75.5 -31.5t-76 31.5t-33 78.5zM170 0l25 1004h110l25 -1004h-160z" />
<glyph unicode="&#xa2;" horiz-adv-x="962" d="M98 424q0 86 29 160.5t79 133t119.5 96.5t151.5 48v221h105v-219q98 -6 168.5 -45t123.5 -104l-100 -82q-35 43 -81 70.5t-111 35.5v-630q72 8 120 36.5t84 73.5l99 -84q-55 -66 -128 -104.5t-175 -44.5v-224h-105v226q-82 10 -151.5 48t-119.5 95t-79 132t-29 161z M244 424q0 -121 61.5 -206t171.5 -105v622q-109 -20 -171 -105t-62 -206z" />
<glyph unicode="&#xa3;" horiz-adv-x="1234" d="M49 176q0 90 62.5 141.5t154.5 51.5q51 0 93 -13.5t81 -33.5q-4 66 -22.5 125t-42.5 118h-209v115h158q-31 74 -55.5 152.5t-24.5 168.5q0 86 31.5 161t88 130.5t136.5 86t178 30.5q158 0 257 -67.5t155 -184.5l-123 -63q-43 90 -111 138t-178 48q-129 0 -206 -76 t-77 -203q0 -90 23.5 -167.5t54.5 -153.5h401v-115h-356q23 -61 38 -127.5t15 -142.5q0 -31 -6 -62q63 -47 131 -84.5t158 -37.5q78 0 122 28.5t85 81.5l100 -84q-63 -80 -130.5 -116.5t-176.5 -36.5q-106 0 -185 43t-145 96q-41 -63 -106.5 -101t-149.5 -38q-43 0 -83 13 t-70.5 37.5t-48 60.5t-17.5 81zM168 178q0 -41 29.5 -65.5t76.5 -24.5q53 0 93.5 29t58.5 84q-37 29 -75 46t-79 17q-47 0 -75.5 -22.5t-28.5 -63.5z" />
<glyph unicode="&#xa4;" horiz-adv-x="1546" d="M82 461v114h180q-4 29 -6 60t-2 61v27.5t2 28.5h-174v114h188q25 121 83.5 220.5t141.5 171t187 111.5t223 40q182 0 302 -66.5t200 -189.5l-113 -80q-33 49 -69.5 86t-82.5 63.5t-104.5 40t-132.5 13.5q-92 0 -170 -28.5t-138 -83t-103 -130.5t-64 -168h660v-114h-676 q-2 -14 -2 -27.5v-28.5q0 -31 2 -61.5t6 -59.5h670v-114h-641q53 -158 172.5 -252t291.5 -94q86 0 153 20.5t118 54t88 76.5t65 90l117 -71q-35 -61 -83 -115.5t-112.5 -95.5t-149.5 -65.5t-196 -24.5q-113 0 -212 33.5t-181 97t-141.5 150.5t-91.5 196h-205z" />
<glyph unicode="&#xa5;" horiz-adv-x="1267" d="M72 1393h161l347 -697q10 -23 20 -49t21 -49q8 -27 18 -53q10 27 18 53q8 23 18.5 49.5t22.5 48.5l346 697h152l-369 -723h312v-115h-369l-61 -121v-61h430v-113h-430v-260h-150v260h-428v113h428v65l-59 117h-369v115h309z" />
<glyph unicode="&#xa6;" horiz-adv-x="409" d="M96 500q0 47 34 78.5t77 31.5q45 0 77.5 -31.5t32.5 -78.5t-32.5 -80t-77.5 -33q-43 0 -77 33t-34 80z" />
<glyph unicode="&#xa7;" horiz-adv-x="1132" d="M76 610q0 98 51 162t129 100q-57 82 -57 195q0 74 27.5 136.5t77.5 108.5t119 71.5t152 25.5q139 0 231.5 -62.5t139.5 -150.5l-119 -74q-41 72 -102 114t-150 42q-104 0 -163.5 -58.5t-59.5 -146.5q0 -94 48.5 -143t140.5 -90l221 -101q158 -72 226.5 -151.5 t68.5 -192.5q0 -90 -51.5 -152.5t-137.5 -97.5q66 -84 66 -192q0 -70 -23.5 -128t-71.5 -101t-121 -68t-169 -25q-147 0 -255 65.5t-163 158.5l119 75q47 -72 116.5 -120t178.5 -48q127 0 181 55.5t54 137.5q0 80 -53 128t-152 91l-217 98q-147 66 -214.5 144t-67.5 194z M219 631q0 -82 48 -130t151 -93l219 -99q43 -18 81.5 -40.5t67.5 -49.5q59 23 93 65t34 99q0 76 -50 125t-161 98l-223 101q-43 18 -81 41.5t-68 52.5q-51 -25 -81 -70t-30 -100z" />
<glyph unicode="&#xa8;" horiz-adv-x="1024" d="M240 1151q0 41 28.5 67.5t65.5 26.5q39 0 67.5 -26.5t28.5 -67.5q0 -39 -28.5 -66.5t-67.5 -27.5q-37 0 -65.5 27.5t-28.5 66.5zM594 1151q0 41 29.5 67.5t66.5 26.5t65.5 -26.5t28.5 -67.5q0 -39 -28.5 -66.5t-65.5 -27.5t-66.5 27.5t-29.5 66.5z" />
<glyph unicode="&#xa9;" horiz-adv-x="1609" d="M90 696q0 154 57.5 285t155.5 226.5t227 148.5t275 53q143 0 273 -53t228.5 -148.5t156 -226.5t57.5 -285t-57.5 -284.5t-156 -226t-228.5 -148.5t-273 -53q-145 0 -274.5 53t-227.5 148.5t-155.5 226.5t-57.5 284zM178 696q0 -137 49 -252.5t134 -199.5t200 -131 t244 -47t243.5 47t199.5 131t134.5 199.5t49.5 252.5t-49.5 253t-134.5 200t-199.5 131t-243.5 47t-244 -47t-200 -131t-134 -199.5t-49 -253.5zM375 694q0 94 34.5 175t94 140.5t138.5 92.5t169 33q115 0 203 -44t141 -122l-102 -80q-39 55 -98.5 87t-137.5 32 q-66 0 -120 -23.5t-95 -64.5t-63.5 -99.5t-22.5 -126.5t23.5 -125t64.5 -99t96.5 -64.5t120.5 -22.5q80 0 141.5 34t102.5 89l102 -74q-57 -84 -147 -130t-205 -46q-90 0 -171 33t-140.5 91t-94 138t-34.5 176z" />
<glyph unicode="&#xaa;" horiz-adv-x="823" d="M80 883q0 55 22.5 97t61.5 69.5t91 41t110 13.5h217q0 113 -46.5 153.5t-121.5 40.5q-82 0 -130 -33.5t-77 -68.5l-82 72q41 59 114.5 100t184.5 41q61 0 113.5 -16.5t92.5 -53t62.5 -94t22.5 -137.5v-432h-133l2 94q-35 -51 -95.5 -81t-138.5 -30q-57 0 -106 14.5 t-86 42t-57.5 69.5t-20.5 98zM213 887q0 -61 45 -91t123 -30q84 0 142.5 41t58.5 115v82h-203q-72 0 -119 -26t-47 -91z" />
<glyph unicode="&#xab;" horiz-adv-x="813" d="M78 401v17l192 321h148l-197 -329l197 -334h-148zM395 401v17l193 321h147l-196 -329l196 -334h-147z" />
<glyph unicode="&#xac;" horiz-adv-x="409" d="M96 500q0 47 34 78.5t77 31.5q45 0 77.5 -31.5t32.5 -78.5t-32.5 -80t-77.5 -33q-43 0 -77 33t-34 80z" />
<glyph unicode="&#xad;" horiz-adv-x="585" d="M94 410v129h395v-129h-395z" />
<glyph unicode="&#xae;" horiz-adv-x="1052" d="M78 981q0 96 34.5 177t95 139.5t141.5 91t173 32.5t175 -32.5t144.5 -91t97.5 -139.5t36 -177q0 -94 -36 -175t-97.5 -139.5t-144.5 -91t-175 -32.5t-173 32.5t-141.5 91t-95 139.5t-34.5 175zM162 981q0 -84 26.5 -151.5t74.5 -114.5t114.5 -74t144.5 -27q80 0 147.5 27 t118 74t78 114.5t27.5 151.5t-27.5 151.5t-78 115.5t-118 75t-147.5 27q-78 0 -144.5 -27t-114.5 -75t-74.5 -115.5t-26.5 -151.5zM365 741v486h149q106 0 157.5 -55.5t51.5 -129.5q0 -49 -24.5 -92t-71.5 -65l96 -144h-98l-80 121q-8 -2 -29 -2h-61v-119h-90zM455 932h59 q63 0 91 28.5t28 79.5q0 49 -27.5 80t-91.5 31h-59v-219z" />
<glyph unicode="&#xaf;" horiz-adv-x="1024" d="M297 1061v113h430v-113h-430z" />
<glyph unicode="&#xb0;" horiz-adv-x="751" d="M96 1137q0 57 21.5 107t60.5 87t89 57.5t110 20.5q57 0 108.5 -20.5t89 -57.5t59 -87t21.5 -107t-21.5 -106.5t-59 -86.5t-89 -57.5t-108.5 -20.5q-59 0 -109.5 20.5t-89.5 57.5t-60.5 86t-21.5 107zM213 1137q0 -72 45 -120t119 -48t119 48t45 120q0 74 -45 122t-119 48 t-119 -48.5t-45 -121.5z" />
<glyph unicode="&#xb1;" horiz-adv-x="1562" d="M70 727v121h137v344q0 143 64.5 207.5t168.5 64.5q76 0 126 -24.5t83 -65.5l-92 -90q-18 23 -41.5 37t-60.5 14q-47 0 -76 -29.5t-29 -113.5v-344h381v385q0 143 64.5 207.5t167.5 64.5q76 0 120.5 -24.5t75.5 -59.5l-90 -90q-16 20 -37.5 32.5t-56.5 12.5 q-47 0 -74 -29.5t-27 -113.5v-385h220v-121h-220v-727h-143v727h-381v-727h-143v727h-137zM1255 0v1479h144v-1479h-144z" />
<glyph unicode="&#xb2;" horiz-adv-x="409" d="M96 500q0 47 34 78.5t77 31.5q45 0 77.5 -31.5t32.5 -78.5t-32.5 -80t-77.5 -33q-43 0 -77 33t-34 80z" />
<glyph unicode="&#xb3;" horiz-adv-x="409" d="M96 500q0 47 34 78.5t77 31.5q45 0 77.5 -31.5t32.5 -78.5t-32.5 -80t-77.5 -33q-43 0 -77 33t-34 80z" />
<glyph unicode="&#xb4;" horiz-adv-x="1024" d="M453 1020l139 395h164l-191 -395h-112z" />
<glyph unicode="&#xb6;" horiz-adv-x="1280" d="M104 1006q0 78 28 148.5t79 123.5t126 84t171 31h582v-1393h-142v1266h-164v-1266h-145v623h-131q-96 0 -171 29.5t-126 81.5t-79 122t-28 150zM262 1008q0 -117 65.5 -188.5t182.5 -71.5h129v518h-129q-117 0 -182.5 -71t-65.5 -187z" />
<glyph unicode="&#xb7;" horiz-adv-x="413" d="M96 500q0 47 34 78.5t77 31.5q45 0 77.5 -31.5t32.5 -78.5t-32.5 -80t-77.5 -33q-43 0 -77 33t-34 80z" />
<glyph unicode="&#xb8;" horiz-adv-x="1024" d="M317 -354l89 51q18 -31 40.5 -53.5t69.5 -22.5q37 0 64.5 22.5t27.5 69.5q0 41 -26.5 69t-81.5 28h-45v190h98v-109q66 -10 117 -57t51 -129q0 -43 -16.5 -77t-44 -56.5t-63.5 -34.5t-73 -12q-80 0 -131 36t-76 85z" />
<glyph unicode="&#xb9;" horiz-adv-x="409" d="M96 500q0 47 34 78.5t77 31.5q45 0 77.5 -31.5t32.5 -78.5t-32.5 -80t-77.5 -33q-43 0 -77 33t-34 80z" />
<glyph unicode="&#xba;" horiz-adv-x="929" d="M86 1034q0 80 29.5 148.5t81 119t121 79t147.5 28.5t147.5 -28.5t120.5 -79t81 -119t30 -148.5t-30 -148.5t-81 -118.5t-120.5 -79t-147.5 -29t-147.5 29t-121 79t-81 118.5t-29.5 148.5zM223 1034q0 -117 65.5 -189.5t176.5 -72.5t177.5 73t66.5 189q0 115 -67 187.5 t-177 72.5q-111 0 -176.5 -72.5t-65.5 -187.5z" />
<glyph unicode="&#xbb;" horiz-adv-x="813" d="M78 76l196 332l-196 331h147l193 -323v-17l-193 -323h-147zM395 76l197 332l-197 331h148l192 -323v-17l-192 -323h-148z" />
<glyph unicode="&#xbc;" horiz-adv-x="409" d="M96 500q0 47 34 78.5t77 31.5q45 0 77.5 -31.5t32.5 -78.5t-32.5 -80t-77.5 -33q-43 0 -77 33t-34 80z" />
<glyph unicode="&#xbd;" horiz-adv-x="409" d="M96 500q0 47 34 78.5t77 31.5q45 0 77.5 -31.5t32.5 -78.5t-32.5 -80t-77.5 -33q-43 0 -77 33t-34 80z" />
<glyph unicode="&#xbe;" horiz-adv-x="409" d="M96 500q0 47 34 78.5t77 31.5q45 0 77.5 -31.5t32.5 -78.5t-32.5 -80t-77.5 -33q-43 0 -77 33t-34 80z" />
<glyph unicode="&#xbf;" horiz-adv-x="960" d="M102 375q0 82 27 149.5t75 118.5t115.5 82t149.5 37v248h135v-361h-67q-68 0 -121.5 -21.5t-90 -58.5t-56 -87t-19.5 -107q0 -123 70.5 -192.5t185.5 -69.5q104 0 168.5 44t111.5 136l119 -62q-51 -123 -154.5 -185t-244.5 -62q-90 0 -165 28.5t-128 79.5t-82 123 t-29 160zM430 1298q0 47 33 78t76 31t75.5 -30.5t32.5 -78.5q0 -47 -32.5 -78.5t-75.5 -31.5t-76 31.5t-33 78.5z" />
<glyph unicode="&#xc0;" d="M76 0l577 1407h25l590 -1407h-156l-94 233h-705l-92 -233h-145zM365 360h600l-246 619q-10 25 -19.5 53.5l-17.5 52.5q-8 29 -16 60q-10 -31 -19 -60q-8 -25 -17 -53t-20 -53zM422 1937h164l139 -395h-113z" />
<glyph unicode="&#xc1;" d="M76 0l577 1407h25l590 -1407h-156l-94 233h-705l-92 -233h-145zM365 360h600l-246 619q-10 25 -19.5 53.5l-17.5 52.5q-8 29 -16 60q-10 -31 -19 -60q-8 -25 -17 -53t-20 -53zM612 1542l140 395h163l-190 -395h-113z" />
<glyph unicode="&#xc2;" d="M76 0l577 1407h25l590 -1407h-156l-94 233h-705l-92 -233h-145zM365 360h600l-246 619q-10 25 -19.5 53.5l-17.5 52.5q-8 29 -16 60q-10 -31 -19 -60q-8 -25 -17 -53t-20 -53zM393 1538l262 395h19l262 -395h-125l-145 203l-148 -203h-125z" />
<glyph unicode="&#xc3;" d="M76 0l577 1407h25l590 -1407h-156l-94 233h-705l-92 -233h-145zM365 360h600l-246 619q-10 25 -19.5 53.5l-17.5 52.5q-8 29 -16 60q-10 -31 -19 -60q-8 -25 -17 -53t-20 -53zM367 1540q6 111 54 169t124 58q43 0 74.5 -18t66.5 -47q39 -35 56.5 -46t41.5 -11 q61 0 74 118l107 -10q-6 -111 -52.5 -168t-124.5 -57q-43 0 -74.5 19.5t-66.5 47.5q-39 35 -56.5 46.5t-41.5 11.5q-63 0 -76 -121z" />
<glyph unicode="&#xc4;" d="M76 0l577 1407h25l590 -1407h-156l-94 233h-705l-92 -233h-145zM365 360h600l-246 619q-10 25 -19.5 53.5l-17.5 52.5q-8 29 -16 60q-10 -31 -19 -60q-8 -25 -17 -53t-20 -53zM397 1673q0 41 29 67.5t66 26.5q39 0 67.5 -26.5t28.5 -67.5q0 -39 -28.5 -66.5t-67.5 -27.5 q-37 0 -66 27.5t-29 66.5zM752 1673q0 41 29.5 67.5t66.5 26.5t65.5 -26.5t28.5 -67.5q0 -39 -28.5 -66.5t-65.5 -27.5t-66.5 27.5t-29.5 66.5z" />
<glyph unicode="&#xc5;" d="M76 0l577 1407h25l590 -1407h-156l-94 233h-705l-92 -233h-145zM365 360h600l-246 619q-10 25 -19.5 53.5l-17.5 52.5q-8 29 -16 60q-10 -31 -19 -60q-8 -25 -17 -53t-20 -53zM455 1694q0 43 16 80.5t46 65.5t69 44.5t84 16.5t84 -16.5t68.5 -44.5t46 -65.5t16.5 -80.5 q0 -86 -61.5 -145.5t-153.5 -59.5t-153.5 59.5t-61.5 145.5zM563 1694q0 -51 30 -82t77 -31t76.5 30.5t29.5 82.5q0 53 -29.5 82.5t-76.5 29.5t-77 -29.5t-30 -82.5z" />
<glyph unicode="&#xc6;" horiz-adv-x="1951" d="M55 0l930 1393h817v-131h-698v-654h622v-129h-622v-348h727v-131h-877v233h-585l-156 -233h-158zM457 365h497v630q0 59 7 113q4 29 8 59q-12 -27 -27 -53q-12 -23 -26.5 -50.5t-30.5 -49.5z" />
<glyph unicode="&#xc7;" horiz-adv-x="1486" d="M111 696q0 158 56 289t152.5 225.5t227.5 146.5t278 52q373 0 553 -270l-112 -82q-68 100 -178.5 159.5t-262.5 59.5q-123 0 -225 -44t-177 -122t-117 -183.5t-42 -230.5t42 -230.5t117 -183t177 -121.5t225 -44q154 0 268.5 61.5t190.5 171.5l115 -80 q-92 -135 -238.5 -210.5t-335.5 -75.5v-93q66 -10 117 -57t51 -129q0 -43 -16 -77t-44 -56.5t-63.5 -34.5t-72.5 -12q-80 0 -131.5 36t-75.5 85l88 51q18 -31 40.5 -53.5t69.5 -22.5q37 0 65 22.5t28 69.5q0 41 -27 69t-82 28h-45v180q-131 16 -243.5 74.5t-195.5 150.5 t-130 214t-47 267z" />
<glyph unicode="&#xc8;" horiz-adv-x="1187" d="M190 0v1393h848v-131h-700v-654h625v-129h-625v-348h729v-131h-877zM385 1937h164l139 -395h-113z" />
<glyph unicode="&#xc9;" horiz-adv-x="1187" d="M190 0v1393h848v-131h-700v-654h625v-129h-625v-348h729v-131h-877zM551 1542l139 395h164l-190 -395h-113z" />
<glyph unicode="&#xca;" horiz-adv-x="1187" d="M190 0v1393h848v-131h-700v-654h625v-129h-625v-348h729v-131h-877zM352 1538l262 395h19l262 -395h-125l-145 203l-148 -203h-125z" />
<glyph unicode="&#xcb;" horiz-adv-x="1187" d="M190 0v1393h848v-131h-700v-654h625v-129h-625v-348h729v-131h-877zM350 1673q0 41 29 67.5t65 26.5q39 0 68 -26.5t29 -67.5q0 -39 -29 -66.5t-68 -27.5q-37 0 -65.5 27.5t-28.5 66.5zM705 1673q0 41 29.5 67.5t66.5 26.5t65.5 -26.5t28.5 -67.5q0 -39 -28.5 -66.5 t-65.5 -27.5t-66.5 27.5t-29.5 66.5z" />
<glyph unicode="&#xcc;" horiz-adv-x="542" d="M20 1937h164l140 -395h-113zM197 0v1393h149v-1393h-149z" />
<glyph unicode="&#xcd;" horiz-adv-x="542" d="M197 0v1393h149v-1393h-149zM217 1542l139 395h164l-190 -395h-113z" />
<glyph unicode="&#xce;" horiz-adv-x="542" d="M-2 1538l262 395h19l262 -395h-125l-146 203l-147 -203h-125zM197 0v1393h149v-1393h-149z" />
<glyph unicode="&#xcf;" horiz-adv-x="542" d="M-2 1673q0 41 28.5 67.5t65.5 26.5q39 0 67.5 -26.5t28.5 -67.5q0 -39 -28.5 -66.5t-67.5 -27.5q-37 0 -65.5 27.5t-28.5 66.5zM197 0v1393h149v-1393h-149zM352 1673q0 41 30 67.5t67 26.5t65.5 -26.5t28.5 -67.5q0 -39 -28.5 -66.5t-65.5 -27.5t-67 27.5t-30 66.5z" />
<glyph unicode="&#xd0;" horiz-adv-x="1392" d="M29 496v129h161v768h355q170 0 306 -51.5t232.5 -143.5t147.5 -220t51 -282t-51 -281.5t-146.5 -220t-232.5 -143.5t-307 -51h-355v496h-161zM338 133h197q150 0 260 41t184 116t110.5 178t36.5 228t-36.5 228.5t-110.5 178.5t-184.5 116t-259.5 41h-197v-635h375v-129 h-375v-363z" />
<glyph unicode="&#xd1;" horiz-adv-x="1460" d="M190 0v1407h25l832 -983q14 -18 31.5 -40t31.5 -42q16 -23 33 -47q-4 29 -6 57q-2 25 -3 51.5t-1 49.5v940h137v-1407h-25l-831 983q-16 16 -32.5 38.5t-31.5 43.5q-16 23 -33 47q2 -29 7 -58q2 -25 4 -51t2 -49v-940h-140zM430 1540q6 111 54 169t124 58q43 0 75 -18 t67 -47q39 -35 56 -46t42 -11q61 0 74 118l106 -10q-6 -111 -52 -168t-124 -57q-43 0 -75 19.5t-66 47.5q-39 35 -56.5 46.5t-42.5 11.5q-63 0 -75 -121z" />
<glyph unicode="&#xd2;" horiz-adv-x="1652" d="M111 696q0 158 56 289t152.5 225.5t227.5 146.5t278 52q150 0 280 -52t227.5 -146.5t153.5 -225.5t56 -289t-56 -289t-153.5 -225t-227.5 -146t-280 -52q-147 0 -278 52t-227.5 146t-152.5 225.5t-56 288.5zM264 696q0 -125 42 -230.5t117 -183t178 -121.5t224 -44 q123 0 225.5 44t178.5 121.5t118 183t42 230.5t-42 230.5t-118 183.5t-178.5 122t-225.5 44q-121 0 -224 -44t-178 -122t-117 -183.5t-42 -230.5zM582 1937h163l140 -395h-113z" />
<glyph unicode="&#xd3;" horiz-adv-x="1652" d="M111 696q0 158 56 289t152.5 225.5t227.5 146.5t278 52q150 0 280 -52t227.5 -146.5t153.5 -225.5t56 -289t-56 -289t-153.5 -225t-227.5 -146t-280 -52q-147 0 -278 52t-227.5 146t-152.5 225.5t-56 288.5zM264 696q0 -125 42 -230.5t117 -183t178 -121.5t224 -44 q123 0 225.5 44t178.5 121.5t118 183t42 230.5t-42 230.5t-118 183.5t-178.5 122t-225.5 44q-121 0 -224 -44t-178 -122t-117 -183.5t-42 -230.5zM766 1542l139 395h164l-190 -395h-113z" />
<glyph unicode="&#xd4;" horiz-adv-x="1652" d="M111 696q0 158 56 289t152.5 225.5t227.5 146.5t278 52q150 0 280 -52t227.5 -146.5t153.5 -225.5t56 -289t-56 -289t-153.5 -225t-227.5 -146t-280 -52q-147 0 -278 52t-227.5 146t-152.5 225.5t-56 288.5zM264 696q0 -125 42 -230.5t117 -183t178 -121.5t224 -44 q123 0 225.5 44t178.5 121.5t118 183t42 230.5t-42 230.5t-118 183.5t-178.5 122t-225.5 44q-121 0 -224 -44t-178 -122t-117 -183.5t-42 -230.5zM553 1538l262 395h19l262 -395h-125l-146 203l-147 -203h-125z" />
<glyph unicode="&#xd5;" horiz-adv-x="1652" d="M111 696q0 158 56 289t152.5 225.5t227.5 146.5t278 52q150 0 280 -52t227.5 -146.5t153.5 -225.5t56 -289t-56 -289t-153.5 -225t-227.5 -146t-280 -52q-147 0 -278 52t-227.5 146t-152.5 225.5t-56 288.5zM264 696q0 -125 42 -230.5t117 -183t178 -121.5t224 -44 q123 0 225.5 44t178.5 121.5t118 183t42 230.5t-42 230.5t-118 183.5t-178.5 122t-225.5 44q-121 0 -224 -44t-178 -122t-117 -183.5t-42 -230.5zM526 1540q6 111 54.5 169t124.5 58q43 0 74.5 -18t66.5 -47q39 -35 56.5 -46t41.5 -11q61 0 74 118l106 -10q-6 -111 -52 -168 t-124 -57q-43 0 -74.5 19.5t-66.5 47.5q-39 35 -56.5 46.5t-41.5 11.5q-63 0 -76 -121z" />
<glyph unicode="&#xd6;" horiz-adv-x="1652" d="M111 696q0 158 56 289t152.5 225.5t227.5 146.5t278 52q150 0 280 -52t227.5 -146.5t153.5 -225.5t56 -289t-56 -289t-153.5 -225t-227.5 -146t-280 -52q-147 0 -278 52t-227.5 146t-152.5 225.5t-56 288.5zM264 696q0 -125 42 -230.5t117 -183t178 -121.5t224 -44 q123 0 225.5 44t178.5 121.5t118 183t42 230.5t-42 230.5t-118 183.5t-178.5 122t-225.5 44q-121 0 -224 -44t-178 -122t-117 -183.5t-42 -230.5zM553 1673q0 41 28.5 67.5t65.5 26.5q39 0 67.5 -26.5t28.5 -67.5q0 -39 -28.5 -66.5t-67.5 -27.5q-37 0 -65.5 27.5 t-28.5 66.5zM907 1673q0 41 30 67.5t67 26.5t65.5 -26.5t28.5 -67.5q0 -39 -28.5 -66.5t-65.5 -27.5t-67 27.5t-30 66.5z" />
<glyph unicode="&#xd7;" horiz-adv-x="409" d="M96 500q0 47 34 78.5t77 31.5q45 0 77.5 -31.5t32.5 -78.5t-32.5 -80t-77.5 -33q-43 0 -77 33t-34 80z" />
<glyph unicode="&#xd8;" horiz-adv-x="1652" d="M106 70l166 163q-76 92 -118.5 209t-42.5 254q0 158 56 289t152.5 225.5t227.5 146.5t278 52q135 0 253 -42t212 -120l164 164l90 -90l-164 -162q76 -92 119 -208.5t43 -254.5q0 -158 -56 -289t-153.5 -225t-227.5 -146t-280 -52q-133 0 -250.5 41t-212.5 118l-163 -163z M264 696q0 -104 30 -194t83 -164q227 225 405 403l406 406q-72 61 -164 95t-199 34q-121 0 -224 -44t-178 -122t-117 -183.5t-42 -230.5zM465 244q72 -59 164 -93t196 -34q123 0 225.5 44t178.5 121.5t118 183t42 230.5q0 104 -30 194.5t-83 164.5z" />
<glyph unicode="&#xd9;" horiz-adv-x="1355" d="M178 475v918h148v-908q0 -186 94 -278t258 -92q162 0 257 92t95 278v908h148v-918q0 -123 -38 -215t-105.5 -153.5t-159 -92t-197.5 -30.5t-197.5 30.5t-159 92t-105.5 153.5t-38 215zM434 1937h164l139 -395h-112z" />
<glyph unicode="&#xda;" horiz-adv-x="1355" d="M178 475v918h148v-908q0 -186 94 -278t258 -92q162 0 257 92t95 278v908h148v-918q0 -123 -38 -215t-105.5 -153.5t-159 -92t-197.5 -30.5t-197.5 30.5t-159 92t-105.5 153.5t-38 215zM618 1542l140 395h164l-191 -395h-113z" />
<glyph unicode="&#xdb;" horiz-adv-x="1355" d="M178 475v918h148v-908q0 -186 94 -278t258 -92q162 0 257 92t95 278v908h148v-918q0 -123 -38 -215t-105.5 -153.5t-159 -92t-197.5 -30.5t-197.5 30.5t-159 92t-105.5 153.5t-38 215zM406 1538l262 395h18l262 -395h-125l-145 203l-148 -203h-124z" />
<glyph unicode="&#xdc;" horiz-adv-x="1355" d="M178 475v918h148v-908q0 -186 94 -278t258 -92q162 0 257 92t95 278v908h148v-918q0 -123 -38 -215t-105.5 -153.5t-159 -92t-197.5 -30.5t-197.5 30.5t-159 92t-105.5 153.5t-38 215zM406 1673q0 41 28.5 67.5t65.5 26.5q39 0 67.5 -26.5t28.5 -67.5q0 -39 -28.5 -66.5 t-67.5 -27.5q-37 0 -65.5 27.5t-28.5 66.5zM760 1673q0 41 29.5 67.5t66.5 26.5t65.5 -26.5t28.5 -67.5q0 -39 -28.5 -66.5t-65.5 -27.5t-66.5 27.5t-29.5 66.5z" />
<glyph unicode="&#xdd;" d="M76 1393h166l379 -693q10 -20 21 -43.5t20 -46.5q8 -25 18 -51q8 25 18 49q8 23 19.5 46.5t21.5 45.5l377 693h154l-516 -951v-442h-152v436zM612 1542l140 395h163l-190 -395h-113z" />
<glyph unicode="&#xde;" horiz-adv-x="1196" d="M190 0v1393h148v-162h180q139 0 244.5 -39t176.5 -109.5t106.5 -167t35.5 -208.5q0 -115 -35.5 -211.5t-106.5 -166t-176.5 -108.5t-244.5 -39h-180v-182h-148zM338 313h172q115 0 194.5 29t129 81t72 125t22.5 159t-22.5 157.5t-72 123.5t-129 82t-194.5 30h-172v-787z " />
<glyph unicode="&#xdf;" horiz-adv-x="1101" d="M152 0v1130q0 100 27.5 172t73.5 117t106.5 65.5t125.5 20.5q59 0 114.5 -16t98.5 -52t69 -89.5t26 -126.5q0 -51 -12.5 -96.5t-35.5 -100.5l-96 -233q-16 -41 -25.5 -73t-9.5 -61t8.5 -49t28 -36.5t51 -31t78.5 -30.5q49 -18 95.5 -41t81 -55.5t56 -76.5t21.5 -101 q0 -53 -16.5 -98.5t-52 -80t-91 -54t-133.5 -19.5q-123 0 -206.5 55t-120.5 135l100 66q33 -70 91.5 -105t129.5 -35q78 0 120 35t42 92q0 35 -13.5 60.5t-38 44t-60 34t-80.5 31.5q-47 16 -88.5 37t-72 48.5t-49 65.5t-18.5 91q0 39 9.5 79t37.5 107l99 240q20 49 27 82 t7 72q0 84 -47 124.5t-125 40.5q-84 0 -137 -58t-53 -198v-1128h-143z" />
<glyph unicode="&#xe0;" horiz-adv-x="1122" d="M98 426q0 94 31 175t86 139.5t130 92t161 33.5q119 0 198.5 -55t124.5 -145l-4 182h144v-848h-144l4 182q-43 -86 -125.5 -142t-199.5 -56q-86 0 -160 33.5t-128 92t-86 139.5t-32 177zM248 426q0 -139 76 -228t211 -89q68 0 122 23.5t91.5 65.5t59 100t21.5 126 t-21.5 125t-59 100t-92 66.5t-121.5 23.5q-135 0 -211 -88t-76 -225zM264 1415h164l139 -395h-112z" />
<glyph unicode="&#xe1;" horiz-adv-x="1122" d="M98 426q0 94 31 175t86 139.5t130 92t161 33.5q119 0 198.5 -55t124.5 -145l-4 182h144v-848h-144l4 182q-43 -86 -125.5 -142t-199.5 -56q-86 0 -160 33.5t-128 92t-86 139.5t-32 177zM248 426q0 -139 76 -228t211 -89q68 0 122 23.5t91.5 65.5t59 100t21.5 126 t-21.5 125t-59 100t-92 66.5t-121.5 23.5q-135 0 -211 -88t-76 -225zM457 1020l139 395h164l-191 -395h-112z" />
<glyph unicode="&#xe2;" horiz-adv-x="1122" d="M98 426q0 94 31 175t86 139.5t130 92t161 33.5q119 0 198.5 -55t124.5 -145l-4 182h144v-848h-144l4 182q-43 -86 -125.5 -142t-199.5 -56q-86 0 -160 33.5t-128 92t-86 139.5t-32 177zM248 426q0 -139 76 -228t211 -89q68 0 122 23.5t91.5 65.5t59 100t21.5 126 t-21.5 125t-59 100t-92 66.5t-121.5 23.5q-135 0 -211 -88t-76 -225zM270 1016l262 395h19l262 -395h-125l-145 203l-148 -203h-125z" />
<glyph unicode="&#xe3;" horiz-adv-x="1122" d="M98 426q0 94 31 175t86 139.5t130 92t161 33.5q119 0 198.5 -55t124.5 -145l-4 182h144v-848h-144l4 182q-43 -86 -125.5 -142t-199.5 -56q-86 0 -160 33.5t-128 92t-86 139.5t-32 177zM236 1018q6 111 54 169t124 58q43 0 74.5 -18.5t66.5 -46.5q39 -35 56.5 -46.5 t41.5 -11.5q61 0 74 119l107 -10q-6 -111 -52.5 -168t-124.5 -57q-43 0 -74.5 19t-66.5 48q-39 35 -56.5 46t-41.5 11q-63 0 -76 -120zM248 426q0 -139 76 -228t211 -89q68 0 122 23.5t91.5 65.5t59 100t21.5 126t-21.5 125t-59 100t-92 66.5t-121.5 23.5q-135 0 -211 -88 t-76 -225z" />
<glyph unicode="&#xe4;" horiz-adv-x="1122" d="M98 426q0 94 31 175t86 139.5t130 92t161 33.5q119 0 198.5 -55t124.5 -145l-4 182h144v-848h-144l4 182q-43 -86 -125.5 -142t-199.5 -56q-86 0 -160 33.5t-128 92t-86 139.5t-32 177zM248 426q0 -139 76 -228t211 -89q68 0 122 23.5t91.5 65.5t59 100t21.5 126 t-21.5 125t-59 100t-92 66.5t-121.5 23.5q-135 0 -211 -88t-76 -225zM262 1151q0 41 28.5 67.5t65.5 26.5q39 0 68 -26.5t29 -67.5q0 -39 -29 -66.5t-68 -27.5q-37 0 -65.5 27.5t-28.5 66.5zM616 1151q0 41 30 67.5t67 26.5t65.5 -26.5t28.5 -67.5q0 -39 -28.5 -66.5 t-65.5 -27.5t-67 27.5t-30 66.5z" />
<glyph unicode="&#xe5;" horiz-adv-x="1122" d="M98 426q0 94 31 175t86 139.5t130 92t161 33.5q119 0 198.5 -55t124.5 -145l-4 182h144v-848h-144l4 182q-43 -86 -125.5 -142t-199.5 -56q-86 0 -160 33.5t-128 92t-86 139.5t-32 177zM248 426q0 -139 76 -228t211 -89q68 0 122 23.5t91.5 65.5t59 100t21.5 126 t-21.5 125t-59 100t-92 66.5t-121.5 23.5q-135 0 -211 -88t-76 -225zM309 1196q0 43 16.5 81t46 65.5t68.5 44t84 16.5t84 -16.5t69 -44t46 -65.5t16 -81q0 -86 -61.5 -145.5t-153.5 -59.5t-153.5 59.5t-61.5 145.5zM418 1196q0 -51 29.5 -82t76.5 -31t77 31t30 82 q0 53 -30 83t-77 30t-76.5 -30t-29.5 -83z" />
<glyph unicode="&#xe6;" horiz-adv-x="1636" d="M92 240q0 66 25.5 113.5t69.5 78.5t102.5 45.5t124.5 14.5h264v24q0 125 -52.5 177t-146.5 52q-90 0 -148.5 -34.5t-99.5 -87.5l-88 79q55 76 139.5 120t206.5 44q104 0 176 -50t105 -142q53 82 141 137t203 55q102 0 183 -36.5t136.5 -101t83 -153t25.5 -190.5h-723 q12 -123 93 -202t223 -79q96 0 161.5 33t108.5 80l86 -86q-59 -66 -145 -106.5t-209 -40.5q-131 0 -225.5 53t-147.5 145q-16 -51 -51 -88t-81 -61.5t-100.5 -36.5t-109.5 -12q-72 0 -132.5 15t-104.5 47t-68.5 80t-24.5 114zM231 246q0 -145 205 -146q49 0 93 13.5t77 37 t52.5 57.5t19.5 75v102h-254q-80 0 -136.5 -30.5t-56.5 -108.5zM823 492h574q-4 49 -23.5 95t-54.5 82t-85 56t-118 20q-121 0 -197.5 -71.5t-95.5 -181.5z" />
<glyph unicode="&#xe7;" horiz-adv-x="956" d="M98 424q0 92 34 173t93.5 141.5t139 94t174.5 33.5q115 0 194.5 -40t138.5 -111l-102 -84q-39 51 -95.5 79.5t-135.5 28.5q-68 0 -122.5 -23.5t-92 -66.5t-58 -100t-20.5 -125t20.5 -125t58 -100t92 -66.5t122.5 -23.5q88 0 145 31.5t98 78.5l99 -84 q-59 -72 -140.5 -111.5t-197.5 -39.5v-93q66 -10 117 -57t51 -129q0 -43 -16.5 -77t-44 -56.5t-63.5 -34.5t-73 -12q-80 0 -131 36t-76 85l88 51q18 -31 41 -53.5t70 -22.5q37 0 64.5 22.5t27.5 69.5q0 41 -26.5 69t-82.5 28h-45v184q-76 14 -139 53t-109 96.5t-72 129 t-26 151.5z" />
<glyph unicode="&#xe8;" horiz-adv-x="1056" d="M98 424q0 92 34 173t92.5 141.5t139 94t173.5 33.5q102 0 183 -36.5t136 -102t83 -156t24 -194.5h-721q14 -123 94 -198t221 -75q96 0 161.5 33t106.5 80l88 -86q-59 -66 -145 -106.5t-211 -40.5q-104 0 -189 33.5t-144.5 93t-92.5 140.5t-33 173zM244 485h575 q-4 55 -23.5 102.5t-55 82.5t-86 55t-117.5 20q-123 0 -200 -71.5t-93 -188.5zM291 1415h164l139 -395h-113z" />
<glyph unicode="&#xe9;" horiz-adv-x="1056" d="M98 424q0 92 34 173t92.5 141.5t139 94t173.5 33.5q102 0 183 -36.5t136 -102t83 -156t24 -194.5h-721q14 -123 94 -198t221 -75q96 0 161.5 33t106.5 80l88 -86q-59 -66 -145 -106.5t-211 -40.5q-104 0 -189 33.5t-144.5 93t-92.5 140.5t-33 173zM244 485h575 q-4 55 -23.5 102.5t-55 82.5t-86 55t-117.5 20q-123 0 -200 -71.5t-93 -188.5zM469 1020l139 395h164l-190 -395h-113z" />
<glyph unicode="&#xea;" horiz-adv-x="1056" d="M98 424q0 92 34 173t92.5 141.5t139 94t173.5 33.5q102 0 183 -36.5t136 -102t83 -156t24 -194.5h-721q14 -123 94 -198t221 -75q96 0 161.5 33t106.5 80l88 -86q-59 -66 -145 -106.5t-211 -40.5q-104 0 -189 33.5t-144.5 93t-92.5 140.5t-33 173zM244 485h575 q-4 55 -23.5 102.5t-55 82.5t-86 55t-117.5 20q-123 0 -200 -71.5t-93 -188.5zM256 1016l262 395h19l262 -395h-125l-146 203l-147 -203h-125z" />
<glyph unicode="&#xeb;" horiz-adv-x="1056" d="M98 424q0 92 34 173t92.5 141.5t139 94t173.5 33.5q102 0 183 -36.5t136 -102t83 -156t24 -194.5h-721q14 -123 94 -198t221 -75q96 0 161.5 33t106.5 80l88 -86q-59 -66 -145 -106.5t-211 -40.5q-104 0 -189 33.5t-144.5 93t-92.5 140.5t-33 173zM244 485h575 q-4 55 -23.5 102.5t-55 82.5t-86 55t-117.5 20q-123 0 -200 -71.5t-93 -188.5zM256 1151q0 41 28.5 67.5t65.5 26.5q39 0 67.5 -26.5t28.5 -67.5q0 -39 -28.5 -66.5t-67.5 -27.5q-37 0 -65.5 27.5t-28.5 66.5zM610 1151q0 41 30 67.5t67 26.5t65.5 -26.5t28.5 -67.5 q0 -39 -28.5 -66.5t-65.5 -27.5t-67 27.5t-30 66.5z" />
<glyph unicode="&#xec;" horiz-adv-x="454" d="M-20 1415h163l140 -395h-113zM156 0v848h143v-848h-143z" />
<glyph unicode="&#xed;" horiz-adv-x="454" d="M156 0v848h143v-848h-143zM166 1020l139 395h164l-190 -395h-113z" />
<glyph unicode="&#xee;" horiz-adv-x="454" d="M-45 1016l262 395h19l262 -395h-125l-146 203l-147 -203h-125zM156 0v848h143v-848h-143z" />
<glyph unicode="&#xef;" horiz-adv-x="454" d="M-45 1151q0 41 28.5 67.5t65.5 26.5q39 0 67.5 -26.5t28.5 -67.5q0 -39 -28.5 -66.5t-67.5 -27.5q-37 0 -65.5 27.5t-28.5 66.5zM156 0v848h143v-848h-143zM309 1151q0 41 30 67.5t67 26.5t65.5 -26.5t28.5 -67.5q0 -39 -28.5 -66.5t-65.5 -27.5t-67 27.5t-30 66.5z" />
<glyph unicode="&#xf0;" horiz-adv-x="1093" d="M98 424q0 94 35 175t94.5 140.5t138 93t166.5 33.5q92 0 161 -34.5t116 -98.5q-33 121 -97.5 233.5t-146.5 211.5l-137 -134l-72 72l144 139q-82 94 -172 168l80 88q43 -35 89 -75.5t93 -89.5l137 135l76 -74l-144 -137q66 -78 127.5 -168t107.5 -194.5t73.5 -220.5 t27.5 -241q0 -100 -34.5 -185t-94 -146.5t-141.5 -96t-176 -34.5q-96 0 -178 33.5t-142.5 93t-95.5 140.5t-35 173zM244 424q0 -68 22.5 -126t62.5 -101t96 -67t124 -24t123 25t95 69t61.5 103t21.5 129q0 68 -21.5 124t-61.5 97t-95.5 64.5t-122.5 23.5q-68 0 -124 -23.5 t-96 -66.5t-62.5 -101t-22.5 -126z" />
<glyph unicode="&#xf1;" horiz-adv-x="1056" d="M152 0v848h143l-4 -174q41 92 121 142t184 50q141 0 229 -92t88 -258v-516h-143v500q0 113 -52 174t-159 61q-119 0 -191.5 -70.5t-72.5 -197.5v-467h-143zM223 1018q6 111 54.5 169t123.5 58q43 0 75 -18.5t67 -46.5q39 -35 56 -46.5t42 -11.5q61 0 74 119l106 -10 q-6 -111 -52 -168t-124 -57q-43 0 -74.5 19t-66.5 48q-39 35 -56.5 46t-41.5 11q-63 0 -76 -120z" />
<glyph unicode="&#xf2;" horiz-adv-x="1093" d="M98 424q0 92 35 173t95.5 141.5t142.5 94t178 33.5q94 0 176 -33.5t141.5 -94t94 -141.5t34.5 -173t-34.5 -173t-94 -140.5t-141.5 -93t-176 -33.5q-96 0 -178 33.5t-142.5 93t-95.5 140.5t-35 173zM244 424q0 -68 22.5 -126t62.5 -101t96 -67t124 -24t123 24t95 67 t61.5 101t21.5 126t-21.5 126t-61.5 101t-95.5 66.5t-122.5 23.5q-68 0 -124 -23.5t-96 -66.5t-62.5 -101t-22.5 -126zM301 1415h164l139 -395h-112z" />
<glyph unicode="&#xf3;" horiz-adv-x="1093" d="M98 424q0 92 35 173t95.5 141.5t142.5 94t178 33.5q94 0 176 -33.5t141.5 -94t94 -141.5t34.5 -173t-34.5 -173t-94 -140.5t-141.5 -93t-176 -33.5q-96 0 -178 33.5t-142.5 93t-95.5 140.5t-35 173zM244 424q0 -68 22.5 -126t62.5 -101t96 -67t124 -24t123 24t95 67 t61.5 101t21.5 126t-21.5 126t-61.5 101t-95.5 66.5t-122.5 23.5q-68 0 -124 -23.5t-96 -66.5t-62.5 -101t-22.5 -126zM489 1020l140 395h164l-191 -395h-113z" />
<glyph unicode="&#xf4;" horiz-adv-x="1093" d="M98 424q0 92 35 173t95.5 141.5t142.5 94t178 33.5q94 0 176 -33.5t141.5 -94t94 -141.5t34.5 -173t-34.5 -173t-94 -140.5t-141.5 -93t-176 -33.5q-96 0 -178 33.5t-142.5 93t-95.5 140.5t-35 173zM244 424q0 -68 22.5 -126t62.5 -101t96 -67t124 -24t123 24t95 67 t61.5 101t21.5 126t-21.5 126t-61.5 101t-95.5 66.5t-122.5 23.5q-68 0 -124 -23.5t-96 -66.5t-62.5 -101t-22.5 -126zM274 1016l263 395h18l262 -395h-125l-145 203l-148 -203h-125z" />
<glyph unicode="&#xf5;" horiz-adv-x="1093" d="M98 424q0 92 35 173t95.5 141.5t142.5 94t178 33.5q94 0 176 -33.5t141.5 -94t94 -141.5t34.5 -173t-34.5 -173t-94 -140.5t-141.5 -93t-176 -33.5q-96 0 -178 33.5t-142.5 93t-95.5 140.5t-35 173zM244 424q0 -68 22.5 -126t62.5 -101t96 -67t124 -24t123 24t95 67 t61.5 101t21.5 126t-21.5 126t-61.5 101t-95.5 66.5t-122.5 23.5q-68 0 -124 -23.5t-96 -66.5t-62.5 -101t-22.5 -126zM248 1018q6 111 54 169t124 58q43 0 74.5 -18.5t66.5 -46.5q39 -35 56.5 -46.5t42.5 -11.5q61 0 73 119l107 -10q-6 -111 -52 -168t-124 -57 q-43 0 -75 19t-67 48q-39 35 -56 46t-42 11q-63 0 -76 -120z" />
<glyph unicode="&#xf6;" horiz-adv-x="1093" d="M98 424q0 92 35 173t95.5 141.5t142.5 94t178 33.5q94 0 176 -33.5t141.5 -94t94 -141.5t34.5 -173t-34.5 -173t-94 -140.5t-141.5 -93t-176 -33.5q-96 0 -178 33.5t-142.5 93t-95.5 140.5t-35 173zM244 424q0 -68 22.5 -126t62.5 -101t96 -67t124 -24t123 24t95 67 t61.5 101t21.5 126t-21.5 126t-61.5 101t-95.5 66.5t-122.5 23.5q-68 0 -124 -23.5t-96 -66.5t-62.5 -101t-22.5 -126zM274 1151q0 41 29 67.5t66 26.5q39 0 67.5 -26.5t28.5 -67.5q0 -39 -28.5 -66.5t-67.5 -27.5q-37 0 -66 27.5t-29 66.5zM629 1151q0 41 29.5 67.5 t66.5 26.5t65.5 -26.5t28.5 -67.5q0 -39 -28.5 -66.5t-65.5 -27.5t-66.5 27.5t-29.5 66.5z" />
<glyph unicode="&#xf7;" horiz-adv-x="409" d="M96 500q0 47 34 78.5t77 31.5q45 0 77.5 -31.5t32.5 -78.5t-32.5 -80t-77.5 -33q-43 0 -77 33t-34 80z" />
<glyph unicode="&#xf8;" horiz-adv-x="1093" d="M68 51l118 109q-41 55 -64.5 121.5t-23.5 142.5q0 92 35 173t95.5 141.5t142.5 94t178 33.5q84 0 156.5 -27.5t130.5 -74.5l116 106l72 -75l-115 -107q41 -55 63.5 -121.5t22.5 -142.5q0 -92 -34.5 -173t-94 -140.5t-141.5 -93t-176 -33.5q-84 0 -158 27.5t-133 74.5 l-119 -111zM240 424q0 -49 11 -92t32 -82l460 426q-80 68 -194 67q-70 0 -126 -23.5t-97 -66.5t-63.5 -101t-22.5 -128zM350 172q84 -68 199 -68q68 0 124 24t96 67t62.5 101t22.5 128q0 100 -43 172z" />
<glyph unicode="&#xf9;" horiz-adv-x="1036" d="M143 375v473h144v-467q0 -133 54 -202.5t177 -69.5t178.5 69.5t55.5 202.5v467h141v-473q0 -186 -101.5 -289.5t-275.5 -103.5q-176 0 -274.5 103t-98.5 290zM276 1415h164l140 -395h-113z" />
<glyph unicode="&#xfa;" horiz-adv-x="1036" d="M143 375v473h144v-467q0 -133 54 -202.5t177 -69.5t178.5 69.5t55.5 202.5v467h141v-473q0 -186 -101.5 -289.5t-275.5 -103.5q-176 0 -274.5 103t-98.5 290zM459 1020l139 395h164l-191 -395h-112z" />
<glyph unicode="&#xfb;" horiz-adv-x="1036" d="M143 375v473h144v-467q0 -133 54 -202.5t177 -69.5t178.5 69.5t55.5 202.5v467h141v-473q0 -186 -101.5 -289.5t-275.5 -103.5q-176 0 -274.5 103t-98.5 290zM248 1016l262 395h18l263 -395h-125l-146 203l-147 -203h-125z" />
<glyph unicode="&#xfc;" horiz-adv-x="1036" d="M143 375v473h144v-467q0 -133 54 -202.5t177 -69.5t178.5 69.5t55.5 202.5v467h141v-473q0 -186 -101.5 -289.5t-275.5 -103.5q-176 0 -274.5 103t-98.5 290zM248 1151q0 41 28.5 67.5t65.5 26.5q39 0 67.5 -26.5t28.5 -67.5q0 -39 -28.5 -66.5t-67.5 -27.5 q-37 0 -65.5 27.5t-28.5 66.5zM602 1151q0 41 30 67.5t66 26.5q37 0 66 -26.5t29 -67.5q0 -39 -29 -66.5t-66 -27.5t-66.5 27.5t-29.5 66.5z" />
<glyph unicode="&#xfd;" horiz-adv-x="946" d="M51 848h158l240 -526q8 -20 16 -45t12 -48q6 -25 10 -51q4 27 11 51q4 23 11 47.5t17 45.5l222 526h147l-553 -1282h-147l217 506zM420 1020l139 395h164l-191 -395h-112z" />
<glyph unicode="&#xfe;" horiz-adv-x="1130" d="M156 -434v1913h143v-805q45 86 127 139t201 53q86 0 160.5 -33.5t129 -92t85 -139.5t30.5 -175q0 -96 -30.5 -177t-86 -139.5t-130 -92t-160.5 -33.5q-115 0 -200 54t-126 138v-610h-143zM291 426q0 -70 21.5 -128t61.5 -100t95 -65.5t123 -23.5q135 0 214 89t79 228 q0 68 -20.5 126t-59.5 99t-92.5 64.5t-120.5 23.5q-68 0 -123 -23.5t-95 -64.5t-61.5 -99t-21.5 -126z" />
<glyph unicode="&#xff;" horiz-adv-x="946" d="M51 848h158l240 -526q8 -20 16 -45t12 -48q6 -25 10 -51q4 27 11 51q4 23 11 47.5t17 45.5l222 526h147l-553 -1282h-147l217 506zM199 1151q0 41 28.5 67.5t65.5 26.5q39 0 67.5 -26.5t28.5 -67.5q0 -39 -28.5 -66.5t-67.5 -27.5q-37 0 -65.5 27.5t-28.5 66.5zM553 1151 q0 41 29.5 67.5t66.5 26.5t65.5 -26.5t28.5 -67.5q0 -39 -28.5 -66.5t-65.5 -27.5t-66.5 27.5t-29.5 66.5z" />
<glyph unicode="&#x152;" horiz-adv-x="2021" d="M111 696q0 154 50 282t145 220t231.5 143.5t306.5 51.5h1028v-131h-698v-654h622v-129h-622v-348h727v-131h-1057q-170 0 -305.5 51t-230.5 143.5t-146 220.5t-51 281zM264 696q0 -125 37 -228t110.5 -178t184.5 -116t260 -41h170v1127h-170q-150 0 -260.5 -41t-184 -116 t-110.5 -178.5t-37 -228.5z" />
<glyph unicode="&#x153;" horiz-adv-x="1804" d="M98 424q0 92 35 173t95.5 141.5t142.5 94t178 33.5q133 0 228 -65.5t143 -171.5q45 104 139 170.5t223 66.5q102 0 183 -36.5t136.5 -102t83 -156t23.5 -194.5h-721q14 -123 94 -198t222 -75q96 0 161.5 33t106.5 80l88 -86q-59 -66 -145.5 -106.5t-208.5 -40.5 q-145 0 -241.5 65.5t-143.5 169.5q-47 -104 -143.5 -169.5t-227.5 -65.5q-96 0 -178 33.5t-142.5 93t-95.5 140.5t-35 173zM244 424q0 -68 22.5 -126t62.5 -101t96 -67t124 -24t123 24t95 67t61.5 101t21.5 126t-21.5 126t-61.5 101t-95.5 66.5t-122.5 23.5 q-68 0 -124 -23.5t-96 -66.5t-62.5 -101t-22.5 -126zM989 485h576q-4 55 -23.5 102.5t-55.5 82.5t-86 55t-118 20q-123 0 -199.5 -71.5t-93.5 -188.5z" />
<glyph unicode="&#x178;" d="M76 1393h166l379 -693q10 -20 21 -43.5t20 -46.5q8 -25 18 -51q8 25 18 49q8 23 19.5 46.5t21.5 45.5l377 693h154l-516 -951v-442h-152v436zM397 1673q0 41 29 67.5t66 26.5q39 0 67.5 -26.5t28.5 -67.5q0 -39 -28.5 -66.5t-67.5 -27.5q-37 0 -66 27.5t-29 66.5z M752 1673q0 41 29.5 67.5t66.5 26.5t65.5 -26.5t28.5 -67.5q0 -39 -28.5 -66.5t-65.5 -27.5t-66.5 27.5t-29.5 66.5z" />
<glyph unicode="&#x2c6;" horiz-adv-x="1024" d="M240 1016l262 395h18l262 -395h-125l-145 203l-147 -203h-125z" />
<glyph unicode="&#x2dc;" horiz-adv-x="1024" d="M213 1018q6 111 54 169t124 58q43 0 75 -18.5t66 -46.5q39 -35 56.5 -46.5t42.5 -11.5q61 0 74 119l106 -10q-6 -111 -52 -168t-124 -57q-43 0 -75 19t-66 48q-39 35 -56.5 46t-42.5 11q-63 0 -76 -120z" />
<glyph unicode="&#x2000;" horiz-adv-x="968" />
<glyph unicode="&#x2001;" horiz-adv-x="1937" />
<glyph unicode="&#x2002;" horiz-adv-x="968" />
<glyph unicode="&#x2003;" horiz-adv-x="1937" />
<glyph unicode="&#x2004;" horiz-adv-x="645" />
<glyph unicode="&#x2005;" horiz-adv-x="484" />
<glyph unicode="&#x2006;" horiz-adv-x="322" />
<glyph unicode="&#x2007;" horiz-adv-x="322" />
<glyph unicode="&#x2008;" horiz-adv-x="242" />
<glyph unicode="&#x2009;" horiz-adv-x="387" />
<glyph unicode="&#x200a;" horiz-adv-x="107" />
<glyph unicode="&#x2010;" horiz-adv-x="585" d="M94 410v129h395v-129h-395z" />
<glyph unicode="&#x2011;" horiz-adv-x="585" d="M94 410v129h395v-129h-395z" />
<glyph unicode="&#x2012;" horiz-adv-x="585" d="M94 410v129h395v-129h-395z" />
<glyph unicode="&#x2013;" horiz-adv-x="806" d="M72 334v125h661v-125h-661z" />
<glyph unicode="&#x2014;" horiz-adv-x="1275" d="M72 334v125h1132v-125h-1132z" />
<glyph unicode="&#x2018;" horiz-adv-x="407" d="M96 1079q0 23 7.5 42.5t19.5 41.5l113 230h77l-69 -213q27 -10 47 -37t20 -62q0 -47 -32.5 -77.5t-73.5 -30.5q-43 0 -76 30.5t-33 75.5z" />
<glyph unicode="&#x2019;" horiz-adv-x="407" d="M94 987l70 213q-29 10 -48.5 37t-19.5 61q0 47 33 78t74 31q43 0 75.5 -30.5t32.5 -76.5q0 -23 -8 -42t-18 -41l-115 -230h-76z" />
<glyph unicode="&#x201a;" horiz-adv-x="407" d="M94 -211l70 215q-29 8 -48.5 35t-19.5 63q0 45 33 76t74 31q43 0 75.5 -31t32.5 -76q0 -20 -8 -39.5t-18 -42.5l-115 -231h-76z" />
<glyph unicode="&#x201c;" horiz-adv-x="731" d="M96 1079q0 23 7.5 42.5t19.5 41.5l113 230h77l-69 -213q27 -10 47 -37t20 -62q0 -47 -32.5 -77.5t-73.5 -30.5q-43 0 -76 30.5t-33 75.5zM420 1079q0 23 8 42.5t18 41.5l115 230h76l-70 -213q29 -10 48.5 -37t19.5 -62q0 -47 -33 -77.5t-74 -30.5q-43 0 -75.5 30.5 t-32.5 75.5z" />
<glyph unicode="&#x201d;" horiz-adv-x="731" d="M94 987l70 213q-29 10 -48.5 37t-19.5 61q0 47 33 78t74 31q43 0 75.5 -30.5t32.5 -76.5q0 -23 -8 -42t-18 -41l-115 -230h-76zM418 987l69 213q-27 10 -47 37t-20 61q0 47 32.5 78t73.5 31q43 0 76 -30.5t33 -76.5q0 -23 -7 -42t-20 -41l-112 -230h-78z" />
<glyph unicode="&#x201e;" horiz-adv-x="731" d="M94 -211l70 215q-29 8 -48.5 35t-19.5 63q0 45 33 76t74 31q43 0 75.5 -31t32.5 -76q0 -20 -8 -39.5t-18 -42.5l-115 -231h-76zM418 -211l69 215q-27 8 -47 35t-20 63q0 45 32.5 76t73.5 31q43 0 76 -31t33 -76q0 -35 -27 -82l-112 -231h-78z" />
<glyph unicode="&#x2022;" horiz-adv-x="571" d="M92 537q0 41 15.5 76.5t42 61t61.5 41t74 15.5t74.5 -15.5t62.5 -41t42 -61t15 -76.5t-15 -76t-42 -60.5t-62.5 -41t-74.5 -15.5t-74 15.5t-61.5 41t-42 60.5t-15.5 76z" />
<glyph unicode="&#x2026;" horiz-adv-x="1261" d="M96 98q0 47 34 79t77 32q45 0 77.5 -32t32.5 -79t-32.5 -79.5t-77.5 -32.5q-43 0 -77 32.5t-34 79.5zM520 98q0 47 34 79t77 32q45 0 77.5 -32t32.5 -79t-32.5 -79.5t-77.5 -32.5q-43 0 -77 32.5t-34 79.5zM944 98q0 47 34 79t77 32q45 0 77.5 -32t32.5 -79t-32.5 -79.5 t-77.5 -32.5q-43 0 -77 32.5t-34 79.5z" />
<glyph unicode="&#x202f;" horiz-adv-x="387" />
<glyph unicode="&#x2039;" horiz-adv-x="495" d="M78 401v17l192 321h148l-197 -329l197 -334h-148z" />
<glyph unicode="&#x203a;" horiz-adv-x="495" d="M78 76l196 332l-196 331h147l193 -323v-17l-193 -323h-147z" />
<glyph unicode="&#x205f;" horiz-adv-x="484" />
<glyph unicode="&#x20ac;" horiz-adv-x="1546" d="M82 461v114h180q-4 29 -6 60t-2 61v27.5t2 28.5h-174v114h188q25 121 83.5 220.5t141.5 171t187 111.5t223 40q182 0 302 -66.5t200 -189.5l-113 -80q-33 49 -69.5 86t-82.5 63.5t-104.5 40t-132.5 13.5q-92 0 -170 -28.5t-138 -83t-103 -130.5t-64 -168h660v-114h-676 q-2 -14 -2 -27.5v-28.5q0 -31 2 -61.5t6 -59.5h670v-114h-641q53 -158 172.5 -252t291.5 -94q86 0 153 20.5t118 54t88 76.5t65 90l117 -71q-35 -61 -83 -115.5t-112.5 -95.5t-149.5 -65.5t-196 -24.5q-113 0 -212 33.5t-181 97t-141.5 150.5t-91.5 196h-205z" />
<glyph unicode="&#x2122;" horiz-adv-x="1484" d="M98 1298v95h480v-95h-185v-514h-110v514h-185zM709 784v619h18l295 -330l293 330h18v-619h-110v383l-191 -227h-20l-193 227v-383h-110z" />
<glyph unicode="&#xe000;" horiz-adv-x="849" d="M0 0v850h850v-850h-850z" />
<glyph unicode="&#xfb03;" horiz-adv-x="1554" d="M70 727v121h137v344q0 143 64.5 207.5t168.5 64.5q76 0 126 -24.5t83 -65.5l-92 -90q-18 23 -41.5 37t-60.5 14q-47 0 -76 -29.5t-29 -113.5v-344h381v385q0 143 65.5 207.5t172.5 64.5q78 0 127 -27.5t78 -64.5l-91 -86q-23 23 -45 36t-59 13q-47 0 -76 -29.5 t-29 -113.5v-385h525v-848h-144v727h-381v-727h-143v727h-381v-727h-143v727h-137zM1225 1194q0 45 30.5 73.5t71.5 28.5t72 -28.5t31 -73.5t-31 -72.5t-72 -27.5t-71.5 27.5t-30.5 72.5z" />
<glyph unicode="&#xfb04;" horiz-adv-x="1562" d="M70 727v121h137v344q0 143 64.5 207.5t168.5 64.5q76 0 126 -24.5t83 -65.5l-92 -90q-18 23 -41.5 37t-60.5 14q-47 0 -76 -29.5t-29 -113.5v-344h381v385q0 143 64.5 207.5t167.5 64.5q76 0 120.5 -24.5t75.5 -59.5l-90 -90q-16 20 -37.5 32.5t-56.5 12.5 q-47 0 -74 -29.5t-27 -113.5v-385h220v-121h-220v-727h-143v727h-381v-727h-143v727h-137zM1255 0v1479h144v-1479h-144z" />
</font>
</defs>
</svg>
